<svg xmlns="http://www.w3.org/2000/svg" version="1.1" width="600px" height="600px" viewBox="0 0 200 200" style="overflow:hidden!important;"><defs id="SvgjsDefs11796"></defs><g id="svga-group-wrapper"><g id="svga-group-backs-single"><path id="SvgjsPath12270" d="M0 0h200v200H0V0z" fill="#9de0ad" stroke-width="none" opacity="1"></path><path id="SvgjsPath12271" d="m156.3 131.2-16.8-.4-17 .6c-.7 0-8.8-.3-9.4-.2-9.8 1.2-14.9.6-20.8 0l-10.9-.1c-1.5 0-3.5-1.6-3.5-3.6l.1-5.6c1-5.5-.2-9.4-.2-14.7l.2-3.6c0-1.5 2.3-2.3 5.1-2.4l7.5.2c3.7-.1 9.6.8 12 .3l11-.5c3.8-.2 10.8-.8 20.5-.5 0 0 10.3 0 19.3.2l5.6-.1c1.5 0 3.2 1.2 3.2 2.7v5c-.1 3.3.1 5.9.1 10.1l.2 5.5-.4 3.4c-.1 2.5-3.8 4.1-5.8 3.7zm-43.4-33.4-16.8-.4-17 .6c-.7 0-8.8-.3-9.4-.2-9.8 1.2-14.9.6-20.8 0L38 97.7c-1.5 0-3.5-1.6-3.5-3.6v-5.6c1-5.5-.2-9.4-.2-14.7l.2-3.6c0-1.5 2.3-2.3 5.1-2.4l7.5.2c3.7-.1 9.6.8 12 .3l11-.5c3.8-.2 10.8-.8 20.5-.5 0 0 10.3 0 19.3.2l5.6-.1c1.5 0 3.2 1.2 3.2 2.7v5c-.1 3.3.1 5.9.1 10.1l.2 5.5-.4 3.4c0 2.5-3.6 4.1-5.7 3.7zm43.4-32.4-16.8-.4-17 .6c-.7 0-8.8-.3-9.4-.2-9.8 1.2-14.9.6-20.8 0l-10.9-.1c-1.5 0-3.5-1.6-3.5-3.6l.1-5.6c1-5.5-.2-9.4-.2-14.7l.2-3.6c0-1.5 2.3-2.3 5.1-2.4l7.5.2c3.7-.1 9.6.8 12 .3l11-.5c3.8-.2 10.8-.8 20.5-.5 0 0 10.3 0 19.3.2l5.6-.1c1.5 0 3.2 1.2 3.2 2.7v5c-.1 3.3.1 5.9.1 10.1l.2 5.5-.3 3.4c-.2 2.5-3.9 4.1-5.9 3.7zm-43.4-33.3-16.8-.4-17 .6c-.7 0-8.8-.3-9.4-.2-9.8 1.2-14.9.6-20.8 0L38 32c-1.5 0-3.5-1.6-3.5-3.6v-5.6c1-5.5-.2-9.4-.2-14.7l.2-3.6c0-1.5 2.3-2.3 5.1-2.4l7.5.2c3.7-.1 9.6.8 12 .3l11-.5c3.8-.2 10.8-.8 20.5-.5 0 0 10.3 0 19.3.2l5.6-.1c1.5 0 3.2 1.2 3.2 2.7v5c-.1 3.3.1 5.9.1 10.1l.2 5.5-.4 3.4c0 2.5-3.6 4-5.7 3.7zm43.4 166.2-16.8-.4-17 .6c-.7 0-8.8-.3-9.4-.2-9.8 1.2-14.9.6-20.8 0l-10.9-.1c-1.5 0-3.5-1.6-3.5-3.6l.1-5.6c1-5.5-.2-9.4-.2-14.7l.2-3.6c0-1.5 2.3-2.3 5.1-2.4l7.5.2c3.7-.1 9.6.8 12 .3l11-.5c3.8-.2 10.8-.8 20.5-.5 0 0 10.3 0 19.3.2l5.6-.1c1.5 0 3.2 1.2 3.2 2.7v5c-.1 3.3.1 5.9.1 10.1l.2 5.5-.4 3.4c-.1 2.5-3.8 4.1-5.8 3.7zM112.9 165l-16.8-.4-17 .6c-.7 0-8.8-.3-9.4-.2-9.8 1.2-14.9.6-20.8 0l-10.9-.1c-1.5 0-3.5-1.6-3.5-3.6v-5.6c1-5.5-.2-9.4-.2-14.7l.2-3.6c0-1.5 2.3-2.3 5.1-2.4l7.5.2c3.7-.1 9.6.8 12 .3l11-.4c3.8-.2 10.8-.8 20.5-.5 0 0 10.3 0 19.3.2l5.6-.1c1.5 0 3.2 1.2 3.2 2.7v5c-.1 3.3.1 5.9.1 10.1l.2 5.5-.4 3.4c0 2.4-3.6 4-5.7 3.6zM25.7 97.8c2.1.4 5.7-1.2 5.7-3.7l.4-3.4-.2-5.5c.1-4.2-.1-6.8-.1-10.1v-5c0-1.5-1.8-2.7-3.2-2.7l-5.6.1c-9-.2-19.3-.2-19.3-.2H.1v30.5l8.8-.3 16.8.3zm5.8 39.5c0-1.5-1.8-2.7-3.2-2.7l-5.6.1c-9-.2-19.3-.2-19.3-.2-1.2 0-2.2-.1-3.3-.1v30.5l8.8-.3 16.8.4c2.1.4 5.7-1.2 5.7-3.7l.4-3.4-.2-5.5c.1-4.2-.1-6.8-.1-10.1v-5zM14.9 35.9c-2.4.4-8.3-.4-12-.3L0 35.5v29.9l4.6.1c5.9.6 11 1.2 20.8 0 .7-.1 8.8.2 9.5.2l17-.6 16.8.4c2.1.4 5.7-1.2 5.7-3.7l.4-3.4-.2-5.5c.1-4.2-.1-6.8-.1-10.1v-5c0-1.5-1.8-2.7-3.2-2.7l-5.6.1c-9-.2-19.3-.2-19.3-.2-9.7-.3-16.7.3-20.5.5l-11 .4zm59.6 72.6v-5c0-1.5-1.8-2.7-3.2-2.7l-5.6.1c-9-.2-19.3-.2-19.3-.2-9.7-.3-16.7.3-20.5.5l-11 .5c-2.4.4-8.3-.4-12-.3l-2.9-.1v29.9l4.6.1c5.9.6 11 1.2 20.8 0 .7-.1 8.8.2 9.5.2l17-.6 16.8.4c2.1.4 5.7-1.2 5.7-3.7l.4-3.4-.2-5.5c0-4.2-.2-6.8-.1-10.2zm0 67.2v-5c0-1.5-1.8-2.7-3.2-2.7l-5.6.1c-9-.2-19.3-.2-19.3-.2-9.7-.3-16.7.3-20.5.5l-11 .5c-2.4.4-8.3-.4-12-.3l-2.9-.2v29.9l4.6.1c5.9.6 11 1.2 20.8 0 .7-.1 8.8.2 9.5.2l17-.6 16.8.4c2.1.4 5.7-1.2 5.7-3.7l.4-3.4-.2-5.5c0-4.2-.2-6.8-.1-10.1zM0 32l8.8-.3 16.8.4c2.1.4 5.7-1.2 5.7-3.7l.4-3.4-.2-5.5c.1-4.2-.1-6.8-.1-10.1v-5c0-1.5-1.8-2.7-3.2-2.7l-5.6.1c-9-.2-19.3-.2-19.3-.2-1.1 0-2.2-.1-3.3-.1V32zm169.4 33.3 10.9.1c5.7.6 10.4.6 19.7-.5V35.4l-9-.4c-2.4.4-7.8-.1-11.5 0l-8.4.4c-2.8 0-5.1.9-5.1 2.4l-.2 3.6c0 5.3-1 10.2.2 14.7l-.1 5.6c0 2 2 3.6 3.5 3.6zm0 65.8 10.9.1c5.7.6 10.4.5 19.7-.6v-29.5l-9.1-.4c-2.4.4-7.8-.1-11.5 0l-8.4.4c-2.8.1-5.1.9-5.1 2.4l-.2 3.6c0 5.3-1 10.2.2 14.7l-.1 5.6c.1 2 2.1 3.7 3.6 3.7zM122.1 22.7l-.1 5.6c0 2 2 3.6 3.5 3.6l10.9.1c5.9.6 11 1.2 20.8 0 .7-.1 8.8.2 9.4.2l17-.6 16.4.4V1.8h-2.6c-9-.2-19.3-.2-19.3-.2-9.7-.3-16.7.3-20.5.5l-11 .5c-2.4.4-8.3-.4-12-.3l-7.5-.3c-2.8 0-5.1.9-5.1 2.4l-.1 3.6c0 5.4 1.2 9.2.2 14.7zm0 65.8-.1 5.6c0 2 2 3.6 3.5 3.6l10.9.1c5.9.6 11 1.2 20.8 0 .7-.1 8.8.2 9.4.2l17-.6 16.4.3V67.5l-2.6.1c-9-.2-19.3-.2-19.3-.2-9.7-.3-16.7.3-20.5.5l-11 .5c-2.4.4-8.3-.4-12-.3l-7.5-.2c-2.8.1-5.1.9-5.1 2.4l-.2 3.6c.1 5.2 1.3 9.1.3 14.6zm77.9 79.8-9.1-.4c-2.4.4-7.8-.1-11.5 0l-8.4.4c-2.8.1-5.1.9-5.1 2.4l-.2 3.6c0 5.3-1 10.2.2 14.7l-.1 5.6c0 2 2 3.6 3.5 3.6l10.9.1c5.7.6 10.4.5 19.7-.6l.1-29.4zm-16.4-3.7 16.4.4v-30.3l-2.6.1c-9-.2-19.3-.2-19.3-.2-9.7-.3-16.7.3-20.5.5l-11 .5c-2.4.4-8.3-.4-12-.3l-7.5-.2c-2.8.1-5.1.9-5.1 2.4l-.2 3.6c0 5.3 1.2 9.2.2 14.7l-.1 5.6c0 2 2 3.6 3.5 3.6l10.9.1c5.9.6 11 1.2 20.8 0 .7-.1 8.8.2 9.4.2l17.1-.7z" fill="#7dd191" stroke-width="none" opacity="1"></path><path id="SvgjsPath12272" d="M34.5 22.7v5.6c0 2 2 3.6 3.5 3.6l10.9.1c5.9.6 11 1.2 20.8 0 .7-.1 8.8.2 9.4.2l17-.6 16.8.4c1.3.2 3.3-.3 4.5-1.4-.8 0-1.7-.3-2.6-.3-1.4 0-6.2-1.1-9.3-1.6-1.3-1.2-2.9-2-4.7-1.7-1.3.2-2.3.8-3.8 1-2.1.3-4.2-.1-6.3-.5-2.2-.4-4.2-.8-6.4-.8-.1 0-.1.1 0 .1 4.1.2 7.9 1.8 11.9 1.9 1.4 0 2.7-.5 4-.5.9 0 1.6.1 2.3.3-6.4 0-22.2.9-24.5 1.6-2.7.7-12.6.7-15.9-.7-3.4-1.5-20.3 0-21.7-.2-1.5-.2-1.7-2.7-1-7 .2-1.2.2-2.6.1-4.2.5.2.9.3 1.4.3 1.4 0 3-.9 4.2-1.5 2.2-1.1 4.4-2.2 6.5-3.5.1-.1 0-.2-.1-.2-2.5 1.3-5 2.4-7.7 3.2-1.3.4-2.7 1.1-4.1.5-.1 0-.2-.1-.3-.1-.3-4.1-1.2-8.7-1.5-10.9-.1-.7-.1-1.4 0-2 3.9-1.4 8.2 1 12.1 1.5 3.2.4 6.3.1 9.5-.4.2 0 .1-.3 0-.3-2.5.2-5 .4-7.6.1-2.7-.3-5.2-1.3-7.8-1.8-2-.4-3.9-.7-5.7 0 .1-.3.2-.6.3-.8-2.4.2-4.2 1-4.2 2.3L34.3 8c0 5.4 1.2 9.2.2 14.7zm71.2 39.6c-1.9-1-8.3.3-10.8 1-2.3.6-8.8-.6-11.6-1.8 2.3-.1 4.6-.5 6.4-1.7.1-.1.1-.4-.1-.4-2.6.3-4.9 1.1-7.5 1.3-1.5-1.7-1.2-7.2-.9-9.9.3-2.9-1.3-7.3-1.6-10.5-.2-1.8-.1-3.3.1-4.4-1.1.4-1.8 1-1.8 1.8l-.2 3.6c0 5.3 1.2 9.2.2 14.7l-.1 5.6c0 2 2 3.6 3.5 3.6l10.9.1c5.9.6 11 1.2 20.8 0 .7-.1 8.8.2 9.4.2l17-.6 16.8.4c1.5.3 3.8-.5 5-1.9h-.5c-2.2 0-3.5-1-5.4-1.6-.6-.2-2.2-.1-4.1.2-1.7-1.6-4.1-2.3-6.4-2-1.9.2-3.5 1.3-5.4 1.4-2 0-3.4-.7-5.4-.3-.1 0-.1.2 0 .2 2.5 0 4.9 1 7.3.4 3.4-.8 5.6-.9 8.6.4-3.7.6-8.1 1.4-9.6 1.2-2.6-.3-4.1.3-7 .3s-19.8-.3-22-.6c-2.1-.1-3.7.2-5.6-.7zm-1.2 33c-.4-.1-1.3-.1-2.5-.2.1-.5-.1-1.1-.5-1.4-.5-.4-1.6-.7-1.9.1-.1.2 0 .5.3.5s.7-.1 1-.1c.4.1.6.5.5.9-7.1-.1-22.9.5-25.5.5-3.1 0-16.7-.3-24.6.6s-12.5-2.3-13-3.4c-.1-.2-.2-.4-.2-.8 1.4-.4 2.9-.3 4.4-.2 2.1.1 4.2-.5 6.2-.3.8.1 1.4.6 2.2.4 1-.2 2-1.2 2.7-1.8 0 0 0-.1-.1-.1-1.3 1.1-1.8 1.5-3.4 1.2-.3-.1-.5-.5-.8-.5-2.2-.3-4.4.2-6.7-.1-1.7-.2-3.3-.3-4.7.2-.2-2.1-.2-5.2-.2-7.2 0-.4 0-.9-.1-1.4 2.9.4 5.8-2.4 8.7-2 .1 0 .1-.1 0-.2-1.7-.5-3.3.1-4.8.6 0-.1-.1-.2-.2-.2-1.4-.1-2.7 0-4-.3-.4-2.6-1.1-5.6-1.1-7.7 0-1.7-.6-2.8-1.3-3.5-.3.3-.5.7-.5 1.1l-.2 3.6c0 5.3 1.2 9.2.2 14.7v5.6c0 2 2 3.6 3.5 3.6l10.9.1c5.9.6 11 1.2 20.8 0 .7-.1 8.8.2 9.4.2l17-.6 16.8.4c1.6.3 4.1-.6 5.2-2.1-1.1.3-2.7.7-3.7.7-1.5.2-7.2-.4-9.8-.9zm13.8 34.8c-4.4-.3-7.3-.3-10.8-3.2-.1-.1-.3-.2-.4-.3 1-.2 2.1-.2 3.2.1 1 .3 1.9.8 3 .9 2.8.3 5.6-.5 8-1.7.4-.2.1-.8-.3-.7-1.8.4-3.5 1-5.4 1.2-2.2.3-3.5-.5-5.4-1.1.6.1 1.1.3 1.7.5.2.1.6-.2.3-.4-2.6-2.4-7.8-.6-10.8.1-5.4-.1-12.3 1.2-13.9 1.6-2.3.6-3.5.3-6.7-1.2s-.6-4.1 0-9.4c.1-.6.1-1 .1-1.4 3 2.9 7.2 4 11.3 3.1 2-.5 3.4-1.4 5.6-1.4 1.9 0 3.6.8 5.4 1.3 2.5.8 4.3 1.2 6.9.7.1 0 .1-.2 0-.2-4.6.5-8.4-2.5-12.9-2.6-1.8 0-3.4.7-5.2 1-4.2.8-7.8-.6-11-3.1-.1-2.4-1-2.3-1.9-5.1-.5-1.4-.9-2.9-1.2-4.2l-.1 2.4c0 5.3 1.2 9.2.2 14.7l-.1 5.6c0 2 2 3.6 3.5 3.6l10.9.1c5.9.6 11 1.2 20.8 0 .7-.1 8.8.2 9.4.2l17-.6 16.8.4c1.1.2 2.6-.2 3.8-.9-2-1.1-5.4-2.9-7.8-3.5-3.5-.9-6.7.6-11.4.9-4.7.5-18.2 2.9-22.6 2.6zm-14.1-4.4c1.1-.2 2.1-.4 3.2-.5-.6.2-1.1.5-1.7.8l-1.5-.3zm12.9 38.2c-.7-.1-1.4-.1-2-.1-1.5 0-3.5 0-6.5-.6-3.1-.6-9.4-.9-13.3-1.1s-16.3 1.5-18.5 1.3-6.1-.9-11.3-1.5c-5.2-.6-17.4.9-19.6 1.3-1.4.3-4-.3-5.8-1.7 1.2.1 2.4.1 3.6 0 .3 0 .4-.4.1-.5-1.4-.5-3.1-.5-4.6-.4-.4-.5-.7-1.1-.9-1.8-.6-3-.1-4.5 0-7.8 1.7 1.6 4.2 1.6 6.8 1.5 3.5-.1 5.9 1.2 8.9 2.3 2.9 1.1 5.7-.4 8.6.6.2.1.3-.3.1-.4-1.2-.4-1.6-.4-2.9-.4-2 0-3.6.6-5.6-.4-1.1-.5-2-1.6-3.1-2.2-3.8-1.9-10.2 1.4-12.9-2.9-.2-3.5-1.1-6.1-1.9-9.1-.4-1.6-.7-3.1-.6-4.3-.7.4-1.2.9-1.2 1.6l-.2 3.6c0 5.3 1.2 9.2.2 14.7v5.6c0 2 2 3.6 3.5 3.6l10.9.1c5.9.6 11 1.2 20.8 0 .7-.1 8.8.2 9.4.2l17-.6 16.8.4c1.2.3 2.9-.1 4.2-1zm39 32.9c-2.3-.2-9.7.5-14.4 0s-11.7-1.3-16.4-1.6-17.8.7-17.8.7-2.5-.4-6.5-.9-17.1.7-18.9-2c-1.1-1.6-.9-3-.6-4.7l1.2.6c1.1.4 2.2.4 3.3.5 1.7.2 3.2.7 4.8 1.2.2.1.4-.3.2-.4-1.3-1-2.5-1.5-4.2-1.8-1.7-.3-3.8-.2-5.2-1.2.2-.9.3-1.8.4-3 .1-1.1 0-2.1-.2-3.2.8.1 1.7.3 2.5.2.3 0 .3-.4.1-.5-.8-.2-1.8-.3-2.7-.4-.5-2.6-1.4-5.2-2.2-8.4-.3-1.3-.5-2.2-.6-2.9-.7.4-1.2.9-1.2 1.6l-.2 3.6c0 5.3 1.2 9.2.2 14.7l-.1 5.6c0 2 2 3.6 3.5 3.6l10.9.1c5.9.6 11 1.2 20.8 0 .7-.1 8.8.2 9.4.2l17-.6 16.8.4c1.4.2 3.6-.4 4.8-1.6-1.1 0-3 .4-4.7.2zm42.1-166.6c-1.7-1-7.7-.2-11.1 0s-16.7-.2-18.8 0-11.1-.7-14-1.2c-2.9-.5-14.2.2-17.6.7s-10.3-.7-10.5-2.7c-.2-1.9-.2-3.6.2-7.7.1-.5.1-1 .1-1.4.9.6 2.5.5 3.3.4 1-.1 1.9-.4 2.9-.6 3.3-.7 5.1-.1 8.2.6 5.6 1.4 11.2 1.5 17 1 .1 0 .1-.2 0-.2-6.5.2-12.2-.1-18.5-2.1-4.5-1.4-8.4.5-12.9-.4-.2-2.6-.9-4.5-1.3-7.2-.3-2.6 0-5.4.6-7.3-2.2.2-3.8 1-3.8 2.3l-.1 3.6c0 5.3 1.2 9.2.2 14.7l-.1 5.6c0 2 2 3.6 3.5 3.6l10.9.1c5.9.6 11 1.2 20.8 0 .7-.1 8.8.2 9.4.2l17-.6 16.4.3v-1.3c-.6.1-1.3-.1-1.8-.4zm-10.6 32.1c-1.9-.8-9.5-.2-13.2-.5.5-.1.9-.2 1.4-.3 1.2-.3 2.7-.7 3.5-1.6.1-.2.1-.5-.2-.5-1.2.1-2.2.8-3.3 1-1.3.3-2.6.4-3.8.7-1.7-.9-2.7-2.9-3.8-5.6-.9-2.1-.3-3.4.1-5 1.8-.1 3.7.6 5.5.5 2.7 0 5.2-.6 7.8.5.1 0 .1-.1.1-.1-2.4-1.3-4.8-.8-7.4-1-2.1-.1-3.9-.9-5.8-.8.1-.6.1-1.2.1-1.9-.3-3.2-1-8.6-.3-10.5.2-.6.2-1.2 0-1.7-1.4.4-2.3 1.1-2.3 2l-.2 3.6c0 5.3-1 10.2.2 14.7l-.1 5.6c0 2 2 3.6 3.5 3.6l10.9.1c5.7.9 10.4.9 19.7-.2v-2.8c-1.7 0-2.6.9-4.1 1.1-2 .3-6.1 0-8.3-.9zm7.6 32.4c0-.8-21.2.3-24.4 0s-4.5-.3-6.5-.8-26.9.8-30.6 1.4-7.7-1.4-8.5-3.1c-.8-1.5.3-5.4.3-8.7.3.2.6.4.9.5.6.2 1.3.3 2 .2 1.8-.2 3.4-1.3 5.2-1.4.1 0 .2-.2 0-.2-1.8-.2-3.4.3-5.1.6-1.2.2-2-.4-3-.8v-.1c-.3-3.4-1.1-7.1-2-9.9-.4-1.3-.7-2.4-1.1-3.2-.2.3-.4.6-.4 1l-.2 3.6c0 5.3 1.2 9.2.2 14.7l-.1 5.6c0 2 2 3.6 3.5 3.6l10.9.1c5.9.6 11 1.2 20.8 0 .7-.1 8.8.2 9.4.2l17-.6 16.3.3V96h-.3c-1.8.4-4.3-.4-4.3-1.3zm.2 32.3c-.8-.5-2.1-.2-2.7.5-.2.2-.1.3.1.4-6.8.5-14.9 1.5-16.2 1.3-2.1-.3-6.4-2.9-6.4-6.4v-.6c1.1.2 2.2.8 3.2.9.6.1 1.2.1 1.8-.1 1-.3 2-1.4 3.3-.8.2.1.4-.1.3-.3-1.1-1.9-3.4.1-4.9.1-1.4.1-2.6-.5-3.9-.6-.4-2.2-1.8-2.7-2.8-5.7-1.2-3.5.3-5 .3-9.1 0-2.2-.5-3.4-1.1-4.2-.3.3-.6.7-.6 1.1l-.2 3.6c0 5.3-1 10.2.2 14.7l-.1 5.6c0 2 2 3.6 3.5 3.6l10.9.1c5.7.6 10.4.5 19.7-.6v-3.1c-1 0-2.4 0-3.9.1 0-.1-.2-.3-.5-.5zm-2.1.9c.5-.1.9-.4 1.4-.4.2 0 .4.1.6.2-.7.1-1.3.1-2 .2zm-9.2 34.7c-.6-.2-2.6-.3-5-.4 0-.8 0-1.5-.1-2.2 0-.1-.2-.3-.3-.3-2.5-.5-5.9 0-7.9 1.6-.2.1 0 .4.2.3 1.5-.4 2.9-1 4.4-1.2.6-.1 1.5-.2 2.1 0 .5-.1.8.1 1 .7.1.4.1.7.2 1.1-5.7-.2-13.9-.1-15.4.2-.4.1-1.3.2-2.4.2-.8-.1-1.7-.1-2.4.1h-.1c-4.5.2-10.5.4-11.7.2-1.7-.2-2.6-.9-6.1-1.7s-12 .4-13.9 0-1.5-2.8-1.5-5.9c0-2.2.4-3.3.9-5 .6.5 1.4.8 2.1.9s1.7 0 2.5-.4c.4.1.8.2 1.2.2 1.9.1 3.9-.4 5.8-.3 2.7.1 5.3.6 8 .9.3 0 .4-.5.1-.5-3.3-1-6.8-1.7-10.2-1.5-2.8.1-3.9.7-6.7-1.1-.7-.4-1.3-1-2-1.5.2-2.9-1.5-4.5-2.1-6.6-.5-1.8-1.1-3.2-.8-5-1.1.4-1.9 1-1.9 1.9l-.2 3.6c0 5.3 1.2 9.2.2 14.7l-.1 5.6c0 2 2 3.6 3.5 3.6l10.9.1c5.9.6 11 1.2 20.8 0 .7-.1 8.8.2 9.4.2l17-.6 16.4.5v-1c-.7-.1-1.3-.3-1.8-.5-1.7-.9-12-.2-14.1-.9zm-57.5-14.4c.9.9 2 1.9 3.1 2.4-.5.1-1-.1-1.5-.2-.8-.2-1.3-.6-1.9-1.1.1-.2.2-.6.3-1.1zm66.4 47c-.7-.1-1.5-.1-2.2-.3-.9-.2-1.7-.6-2.4-1.2-.3-.3-.8.2-.5.5.2.2.5.4.8.6-3.2 0-6.9 1.2-9.5 1.3-1.5.1-3.3-.5-4.8-1.5.3-.1.6-.1.8-.2.3-.1.3-.6-.1-.6-.6 0-1.2 0-1.8.1-1.3-1.1-2.2-2.4-2.6-3.8-.7-3.4-1.4-2-2.5-6.1s-.5-4.3.2-9.4c.5-3.6-.4-4.3-1.4-5.4-.7.4-1.2.9-1.2 1.6l-.2 3.6c0 5.3-1 10.2.2 14.7l-.1 5.6c0 2 2 3.6 3.5 3.6l10.9.1c5.7.6 10.4.5 19.7-.6v-1.6c-2.6-.2-5-.4-6.8-.7.2-.2.2-.3 0-.3zM25.7 97.8c1 .2 2.3-.1 3.5-.7-1.7-.2-4-.7-6.2-1 0-.1-.1-.2-.2-.2-1.1-.6-1.7-.6-3-.6-2.6 0-4.3-1.3-6.5-2-3.1-1-6.4-.2-9.6-.1-.4 0-.5.6-.1.7 3.5.6 7-.7 10.3.9.5.3 1 .6 1.6.9-3.7.1-10 .3-15.5.5v1.6l8.8-.3 16.9.3zm-.3 33.4c.7-.1 8.8.2 9.4.2l17-.6 16.8.4c1.1.2 2.7-.2 3.9-1-1.5-.4-3.3-.9-3.9-1.1-.7-.2-4.4-1-7.7-1.2-1.2-1-2.6-1.4-4.5-1.4-4 .2-7.4-1.6-11.5-1.3-.3 0-.3.4 0 .4 1.8.2 3.6.2 5.3.7 1 .3 2.3 1 3.4 1.2 1.1.2 2.2-.1 3.3 0 .5 0 1.1.1 1.6.2-1 .1-1.9.3-2.5.7-2.6 1.8-4.7.3-8.8.3s-15.2-.6-15.2-.6-11.4.3-15.8.9c-1.1.1-2.8.2-4.8.3.3-.3.5-.6.8-.8 2.5-2.3 4.5-2.4 7.8-2.2 4.9.3 9-1.6 13.9-2.1.1 0 .1-.2 0-.2-2.7.2-5.2.6-7.8 1.3-3.2.9-6.2-.1-9.5-.1-4.3 0-3.9 1.6-6.2 4.1-3.4.1-7.3 0-10.5-.2v1.8l4.6.1c6 .8 11.1 1.4 20.9.2zm.3 33.8c1.2.2 2.9-.2 4.1-1.1-1.5-.2-4.2.3-5.5-.2-1.7-.6-5.2-.6-8.3-.2-2 .3-9.6-.1-16-.7v2.1l8.8-.3 16.9.4zm22.8 30.8c-.6-.1-1.5-.1-2.6-.2-.3-1.5-.9-3.2-2.2-3.6-.5-.2-.9.1-1.4.1-1 .1-1.9 0-2.8-.2-1.3-.3-2.5-.7-3.9-.6-.2 0-.2.3 0 .3 1.9.4 3.6 1.4 5.5 1.6.5.1 1.1-.1 1.5-.1 1.5.3 2.1 1.2 2.4 2.4-5.8-.4-15.4-.8-19.5-.8-5.1 0-20.8.3-25.4.3v3.2l4.6.1c5.9.6 11 1.2 20.8 0 .7-.1 8.8.2 9.5.2l17-.6 16.8.4c1.1.2 2.7-.2 3.9-.9-2-.1-4.8-.2-6.1-.2-2.2 0-14.3-1-18.1-1.4zM25.7 32.1c1.3.2 3.2-.3 4.5-1.3-1.4-.3-3.4-.6-4.8-.9-3.4-5.6-12.7-4-18.1-5.5-.1 0-.1.1-.1.1 2.5 1 5.1.9 7.7 1.5 2.8.6 7 1.3 9.1 3.6-2.3-.1-6.6.6-9.5-.3-2.1-.6-9.5-.6-14.5-.8V32l8.8-.3 16.9.4zm-.3 33.3c.7-.1 8.8.2 9.4.2l17-.6 16.8.4c.9.2 2 0 3.1-.5-2-.1-4.3-.6-5.9-.8-2.5-.3-7.3-1.3-10.8-1.9-.4-.1-1-.1-1.8-.1 1.1-.3 2.2-.2 3.4-.3.4 0 .5-.5.1-.7-1-.4-2.1-.3-3.1-.1-.5.1-1 .3-1.5.5-.3.2-.7.4-1 .6-6.5.3-17.9 1.7-19.9 2-2.5.3-18.5-.3-21.7-1.3-1.3-.4-3.7-.5-6.3-.7 4.4-1.9 9.8-.1 14.5-.3 4.2-.2 8.4-.8 12.4-2.2.2 0 .1-.3-.1-.2-6.9 1.7-13 1.8-20.1 1-3.2-.4-5.4-.3-8 1.6-.6.1-1.3 0-1.9 0v3.4l4.6.1c5.9.5 11 1.1 20.8-.1zM155.5 29c3.6-.9 6.7-1.5 10.4-.8 2.3.5 4.3 1 6.6.6.1 0 .1-.2 0-.2-3.4.4-6.6-1.2-9.9-1.4-2.5-.1-5 .2-7.3 1.4-.1.2 0 .5.2.4zM55.2 12c.9-.5 1.8-.7 2.8-.8.1 0 0-.1 0-.1-1 0-2 .3-2.9.8-.1 0 0 .1.1.1zm5.5-.8c1-.1 1.9-.1 2.9-.3.1 0 .1-.1 0-.1-1 0-1.9.2-2.9.3-.2-.1-.2.1 0 .1zm31.1 39.5c.5 0 .5-.8 0-.8-.9 0-2 .2-2.6.9-.2.2 0 .5.3.4.8 0 1.5-.4 2.3-.5zm-6.8 5c-.2 0-.3 0-.4.1-.2.1-.2.4 0 .5.1.1.2.1.4.1.4 0 .4-.6 0-.7zm36 1.7c.1 0 .1-.1.2-.1.1-.1.1-.2 0-.3-.1 0-.1-.1-.2-.1-.6-.5-.6.9 0 .5zm8.9 1.4c.1-.2-.1-.3-.3-.2-.2.1-.3.3-.6.1-.3-.2-.6.3-.3.5.5.1 1.1.1 1.2-.4zm26-6.9c.2-.1.2-.4 0-.5-.2-.1-.3-.1-.5-.1-.6-.1-.6.8 0 .7.2 0 .3 0 .5-.1zm28.2 7.5c.2-.1.2-.3 0-.4-.4-.1-.7-.1-1.1-.1-.4 0-.4.6 0 .6s.8 0 1.1-.1zm6.8.2c.1 0 .1-.2 0-.2-.7-.2-1.4-.1-2.1-.1-.3 0-.3.5 0 .5.7-.1 1.4 0 2.1-.2zM22.2 24c2.6.9 4.7-1.3 6.9-2.2.2-.1.1-.3-.1-.3-2.3.6-4.2 2.9-6.7 2.1-.3-.1-.4.3-.1.4zm5.8-8.4c.3 0 .3-.5 0-.5-.4-.1-.4.5 0 .5zm14.1 43.8c.2 0 .2-.4 0-.4-.3 0-.3.4 0 .4zm11.8-.5c.4-.2.9-.4 1.3-.6.1-.1 0-.2-.1-.2-.5.1-.9.3-1.3.5-.1.1-.1.4.1.3zm-14.8-9.5c-7-.4-14.1-.5-21.1-1.3-5.1-.5-7.7-1.6-12.3 1.1-.1.1 0 .2.1.2 4.7-2.6 10.4-.5 15.6-.4 5.9.1 11.8.4 17.7.6.2 0 .2-.2 0-.2zm15.3-5.2c-.6-.1-1.2-.1-1.9-.2-.4 0-.4.6 0 .6.6 0 1.3 0 1.9-.2.1 0 .1-.2 0-.2zm8.1 2.9c.2 0 .2-.3 0-.3s-.2.3 0 .3zM45 51.5c.2 0 .2-.2 0-.2s-.2.2 0 .2zm-17.6 1.4c.2 0 .2-.4 0-.4s-.2.4 0 .4zm28 29.3c.2 0 .2-.2 0-.2-1.1-.4-2.2-.6-3.4-.9-.3-.1-.4.4-.1.4 1.2.3 2.3.6 3.5.7zm18.7-.1c.2-.1.1-.4-.1-.4-.9-.1-1.8.2-2.6.4-.2.1-.2.5.1.4.8 0 1.7 0 2.6-.4zm11.4 1.6c.2 0 .2-.3 0-.3s-.3 0-.5-.1c-.3 0-.3.5 0 .5.2 0 .3-.1.5-.1zm20.9 6.9c-.3 0-.3.5 0 .5s.3-.5 0-.5zm-13.1 2.3c.3 0 .3-.5 0-.5-.5 0-1.1 0-1.6.1-.2 0-.2.3 0 .3.6.2 1.1.1 1.6.1zm44.6-10.4c-.3-.1-.4.4-.1.4.5.1.9.2 1.4.2.2 0 .2-.3.1-.4-.6 0-1-.1-1.4-.2zm-8.7 11.3c-.3 0-.3.5 0 .5.7 0 1.4.1 2.1-.1.2 0 .2-.3 0-.3-.7-.2-1.4-.2-2.1-.1zm22.9-3.2c-2.3-.1-4.5.1-6.6 1.1-.3.2-.1.8.2.6 4.9-2.1 10.3.2 15.3-.4.4 0 .5-.6.1-.7-2.8-.6-6-.5-9-.6zm20.5 2.7c1.2.1 2.4.4 3.6.6.2 0 .3-.2.1-.3-1.1-.6-2.5-.8-3.8-.8-.3-.1-.3.5.1.5zm20.9-6.7c.2 0 .2-.3 0-.3-1.2-.1-2.4-.3-3.6-.3-.2 0-.2.3 0 .3 1.1.2 2.4.2 3.6.3zm-9.4-.5H183c-.1 0-.1.1 0 .1h1.1c.1.1.1-.1 0-.1zm-10 0c-5.1.5-10.1 0-15.1-.5-.3 0-.3.4-.1.5 5 1.1 10.2 1 15.2.5.3-.1.3-.5 0-.5zm-157.2 3c-.2.1 0 .4.2.3.8-.4 1.6-.5 2.5-.5.1 0 .2-.2 0-.2-.9-.4-1.9-.1-2.7.4zm6.6-10.5c-.1 0-.1.2 0 .2 1.4-.1 2.8-.2 4.2-.1.2 0 .2-.3 0-.3-1.4-.1-2.9-.1-4.2.2zm-18 36.5c-.2 0-.2.3 0 .3 1.1 0 2.3 0 3.4-.1.1 0 .1-.2 0-.2-1.1-.1-2.3 0-3.4 0zm5.4 1.2c.3.9.8 1.9 1.6 2.4.1.1.1-.1.1-.1-.6-.7-1.2-1.4-1.5-2.4 0-.2-.3-.1-.2.1zm3.8 2c-.2.1 0 .4.2.3 3.7-1.7 6.9-2.4 10.9-2.6.2 0 .2-.3 0-.3-3.6-.5-7.9.6-11.1 2.6zm99.6.4c.1 0 .1-.1 0-.2h-.5c-.1 0-.1.2 0 .2h.5zm11.6 6.8c1-.3 2-.2 3.1-.2.2 0 .3-.3.1-.3-1-.5-2.3-.3-3.3.1-.4 0-.3.5.1.4zm8.8.9c.3 0 .3-.4 0-.4s-.3.4 0 .4zm3.6.2c.2 0 .2-.3 0-.3s-.2.3 0 .3zm2.6-13.8c3.1.3 5.9 1.8 9 .9.3-.1.3-.6-.1-.6-2.9.3-5.5-.6-8.3-.8-3-.2-5.9 1.2-8.9.5-.4-.1-.6.4-.3.6 3 1.9 5.5-.9 8.6-.6zm-15.7.5c-2.7.6-5.3.8-8 1-.2 0-.2.3 0 .3 2.7 0 5.5-.4 8.1-1 .2 0 .1-.4-.1-.3zm54.4 5.2c.2 0 .2-.3 0-.3s-.2.3 0 .3zm.6-3.8c-.3 0-.5.1-.8.1-.2 0-.2.3 0 .3.3 0 .5.1.8.1.3 0 .3-.5 0-.5zm-6.8 9.7c.4 0 .4-.6 0-.6s-.4.6 0 .6zm-1.9-5.2c-.2 0-.2.3 0 .3s.2-.3 0-.3zm11.6 4.2c.2 0 .2-.3 0-.3-.2-.1-.4-.1-.6-.1-.3 0-.3.5 0 .5.2 0 .4 0 .6-.1zm4.6 0c-.2 0-.2.3 0 .3s.2-.3 0-.3zm8.2 1.7c-.4 0-.4.6 0 .6.3 0 .3-.6 0-.6zM158.6 150c.6.1 1.3.2 1.9.2.2 0 .2-.3 0-.3-.6-.2-1.2-.3-1.9-.3-.2-.1-.2.4 0 .4zm7.7 1.1c.1-.1 0-.2-.1-.2-.5.2-1 .3-1.5.2-.2 0-.2.3 0 .3.6.1 1.2 0 1.6-.3zm3.9-.1c-.3 0-.3.5 0 .5s.3-.5 0-.5zm-103.7 2.1c.2-.1.3-.2.5-.4.1-.1 0-.3-.2-.3-.2.1-.4.1-.6.2-.2.1 0 .7.3.5zm8.5-1.9c-.4 0-.4.6 0 .6s.4-.6 0-.6zm26.7 37.5c-.3 0-.3.6 0 .5 1-.1 2.2-.1 3.2-.4.2-.1.2-.3-.1-.4-1 0-2.1.2-3.1.3zm18.5 5.3c-.2.1-.2.4 0 .4.2.1.4.1.6.1.3 0 .3-.6 0-.5-.2-.1-.4-.1-.6 0zm6.1-.2c.2 0 .2-.3 0-.3-.5-.1-1-.1-1.6-.1-.3 0-.3.4 0 .4.5.1 1.1.1 1.6 0zm8.6-.2c-.3 0-.3.5 0 .5s.3-.5 0-.5zm46.7 1.6c.8-.2 1.8-.2 2.4-.7.1-.1 0-.2-.1-.2-.8-.2-1.7.2-2.5.4-.4 0-.2.6.2.5zm-161.5-5.3c-.1 0-.1.2 0 .2 3-.8 6.1-.4 8.8 1.1.2.1.4-.2.2-.3-2.8-1.7-5.9-2.1-9-1zm-15-5.2c-.4-.1-.6.6-.2.6 2.9.7 6.1.8 8.9-.5.3-.1.1-.6-.2-.5-3 .5-5.6.9-8.5.4zm25.5-7.2c-.5 0-1.1.1-1.6.2-.2.1-.1.4.1.4l1.5-.3c.2 0 .2-.3 0-.3zm13 1.4c-.2.1-.1.4.1.4 1.8-.4 3.5-.9 5.2-1.7.1-.1 0-.2-.1-.2-1.7.4-3.4 1-5.2 1.5zm11.1-1.9c-.9-.1-1.8-.1-2.7-.1-.3 0-.3.4 0 .4.9 0 1.8.1 2.7-.1.1.1.1-.1 0-.2zm4.9-.3h.3c.1 0 .1-.1 0-.1h-.3c-.1 0-.1.1 0 .1zm4.2 5.7c.3 0 .3-.4 0-.4-.3-.1-.3.4 0 .4zm-10 6.6c.1 0 .1-.1 0 0 0-.1 0 0 0 0zm-24.3-8.7c.3 0 .3-.5 0-.5s-.3.5 0 .5zm-13.3-24.6c.3 0 .3-.5 0-.5s-.3.5 0 .5zm1.8-.5c.3 0 .3-.5 0-.5s-.3.5 0 .5zm-7.6 3.4c.3 0 .3-.5 0-.5s-.3.5 0 .5zm10.4-9.7c.1 0 .1-.1.2-.1.1-.1.1-.2 0-.3-.1-.1-.1-.1-.2-.1-.6-.3-.6.8 0 .5z" fill="#61c178" stroke-width="none" opacity="1"></path><path id="SvgjsPath12273" d="M65.5 71.8c-3.3-1.8-5.6-.7-9.1-.7-4.1 0-8-.9-12.2-.2-.2 0-.2.4 0 .4 2-.2 3.9-.4 5.9-.2 1.9.2 3.7 1.1 5.5 1.3 3.4.3 6.2-1.4 9.7-.4.2 0 .3-.2.2-.2zm21.3-1.4c-5.7.6-11.2 1.2-16.9 1.2-.2 0-.2.2 0 .2 5.6.1 11.4-.2 16.9-1.3.1 0 .1-.1 0-.1zm12.6-1.2c-1.6-.6-3.3-.4-4.8.2-.1 0 0 .1 0 .1 1.6-.6 3.1-.5 4.8-.1 0 0 .1-.1 0-.2zm14.3 1.3c-1.4-.9-3.1-.8-4.7-.7-.2 0-.2.4 0 .4 1.2 0 2.5 0 3.6.4 1.3.5 1.8 1.4 2.2 2.6.1.2.3.2.4 0 .2-1.1-.6-2.1-1.5-2.7zm3.2 7.7c0-.2-.3-.2-.3 0v1.2c0 .1.2.1.3 0 .1-.4 0-.8 0-1.2zm-8.3 24.7c-5.5-.5-11.1-.2-16.6-.1-3.7.1-8.1-.6-11.5.9-.2.1-.1.5.2.4 4.1-1.7 9.9-.5 14.3-.5 4.6 0 9.2.2 13.7-.2.2.1.2-.5-.1-.5zm50.3 1.4c-6.2-1.2-12.6-1.3-18.9-1.6-7.2-.3-14.4-.7-21.6.1-.2 0-.2.4 0 .3 6.9-.6 13.7-.7 20.6-.2 6.6.5 13.1 1.8 19.8 1.7.2.1.3-.2.1-.3zm1.3 2.8s0 .1 0 0c.1.1.1 0 0 0zm.2 0c0-.1-.1-.1-.1 0 .1 4-.3 8.1-.2 12.1 0 .1.1.1.2 0 .5-3.9.3-8.1.1-12.1zm35.6-4c-2.5 0-5.1.3-7.6.1-1.9-.2-3.8-1-5.7-1.1-3.9-.2-7.3.5-11.2-.2-.4-.1-.5.5-.2.6 4.4 1.3 9.1 1 13.6 1.3 3.6.2 7.4-.1 11-.3.3-.1.3-.4.1-.4zm-36-33.2c-6.2.2-12.5.6-18.7.1-4.8-.4-10.2-2.5-14.9-.8-.2.1-.1.4.1.3 4.9-1.5 11.5 1.3 16.7 1.6 5.6.3 11.3-.2 16.8-.9.1 0 .2-.3 0-.3zm31.7-32.4c-3.1-2-7.1-.2-10.6-.6-3.8-.4-7.1-1-11 0-.3.1-.2.5.1.5 3.8-.6 7.1 0 10.8.5 3.4.4 7.4-1.2 10.6 0 .2 0 .3-.3.1-.4zm-76.6-.3c-11 1.4-21.9-.6-32.9 0-.3 0-.3.5 0 .5 11 .2 22.2 2.4 33-.2.1 0 .1-.3-.1-.3zm40.1-.3c-7.5.5-14.8-1.3-22.4-.2-.2 0-.1.3 0 .3 5.1-.6 9.4-.2 14.4.5 2.4.3 11.8-.5 11.9 2.8 0 .3.4.4.5.1.8-3.1-1.8-3.6-4.4-3.5zM115 5.1c-3.9-2.9-9.1 1-13.3 0-.2 0-.3.2-.1.3 2.8 1.2 5 .4 7.9-.1 3.1-.5 5.8.2 6.7 3.6.6 2.2.5 4.8.7 7 0 .3.5.3.5 0-.2-3.3.6-8.6-2.4-10.8zm-21.7-.9c-3.8 0-7.7-.1-11.5-.2-.2 0-.2.2 0 .2 3.9.3 7.7.2 11.6.1.1.1.1-.1-.1-.1zm-35.6 23c-2.4-.5-4.8-.6-7.2-.5-1.6.1-10.7 2.2-9.6-1.8.1-.2-.3-.4-.4-.2-1 1.9.5 3.5 2.4 3.8 1.5.2 3-.4 4.5-.6 3.4-.6 6.8-.6 10.3-.5.1.2.1-.1 0-.2zm2.8.4c-.4 0-.4.6 0 .6s.4-.6 0-.6zm7.3 1.4c-2-.5-4.1-.8-6.1-1-.1 0-.2.2 0 .2 2 .5 4 1 6.1 1.1.1.1.2-.2 0-.3zm63.5-.8c-1.1-.2-2.4-.1-3.2-.9-1-1-.6-2.4-.3-3.5.3-1.3.6-2.6-.1-3.9-.1-.2-.5 0-.4.2 1 2.2-1.2 4.5-.4 6.7.6 1.7 2.7 2.2 4.3 2 .3 0 .5-.5.1-.6zm13-8.5c-2.5-.4-5.1-1.4-7.6-1.6-2.8-.2-7.1 2.3-9.5.5-.2-.1-.4.2-.2.3 1.6 1.4 3.2.8 5 .3 4.5-1.3 7.9.5 12.3.7.1.1.1-.1 0-.2zM126.6 3.6c0-.2-.3-.4-.4-.1-.5 2.6-.5 5.1.3 7.6.1.2.3.1.3-.1-.4-2.5-.6-4.9-.2-7.4zm-96.9.9c-2.5-2-5.2-1.5-8.2-1.3-4.8.5-9.4.3-14.1-.2-.1 0-.2.2 0 .3 3.4.7 6.7 1.1 10.2 1.1 4.1 0 7.9-.9 11.9.6.2 0 .4-.3.2-.5zm.5 6.1c-.1-1.5.1-3.1-1-4.2-.1-.2-.4.1-.2.2 1.2 1.6.8 4.7.9 6.6.1 1.8.1 3.6.3 5.3 0 .1.2.1.2 0 .2-2.6-.1-5.3-.2-7.9zm.3 14.7c0-.2-.4-.2-.4 0 .1 1 0 1.9-.1 2.9 0 .1.2.1.2 0 .4-.9.4-1.9.3-2.9zm42.9 16.2c-.1-2.2-1-4.1-3.4-3.6-.2 0-.1.3 0 .3 3.9 1.1 2 9.4 2.2 12.2.2 2.7.7 5.1 1.7 7.5.1.1.2 0 .2-.1-2.1-5.5-.5-10.7-.7-16.3zm-4.7-3.8c-2.1.1-4.2 0-6.3-.1-.2 0-.2.3 0 .3 2.1.4 4.2.3 6.3 0 .2 0 .2-.2 0-.2zm-35.4-1.3c-3.4-.8-6.8-.3-10.3 0-4.2.3-8.4.6-12.5 1.2-.2 0-.2.3 0 .3 7.3-.2 15.5-2.6 22.7-1.1.3 0 .4-.4.1-.4zM17.7 46.7c-2.9 1.2-5.8-1.1-8.7-.3-.1 0-.1.2.1.2 2.9-.8 6 1.9 8.8.3.1-.1 0-.3-.2-.2zm6.9 22.8c-6.8.3-12.3 1.3-18.9-1.2-.2-.1-.4.3-.2.4 2.8 1.2 5.7 2 8.8 2.3 2.7.2 13.1-1.7 14.4 1.7.1.2.5.2.5-.1 0-2.7-2.2-3.2-4.6-3.1zm5.9 9.9c0-.3-.4-.3-.4 0 0 1-.1 2.1 0 3.1 0 .2.3.2.3 0 .2-1 .1-2.1.1-3.1zM53.4 104c-6.5-1.7-13.3-1.4-19.9-1.4-.2 0-.2.2 0 .2 6.7 0 13.2.4 19.8 1.5.2.1.3-.2.1-.3zm.8 24.2c-7.7.5-15.5-1.1-23.2-1.3-.2 0-.2.3 0 .3 7.3 1 16 2.8 23.3 1.3.1-.1.1-.3-.1-.3zm18.1-19.3c.2-2.2 1.1-4.8-1.7-5.3-.3-.1-.5.3-.2.5 2.3 1.5.9 8.9 1.2 11.5.3 3.4.9 6.7 1.6 10.1 0 .1.2.1.2 0-.8-5.6-1.6-11.2-1.1-16.8zm33.3 8.2c-3.7-3.4-7.5-3.4-12-1.8-.3.1-.2.6.1.4 2.2-.7 4.4-1.5 6.7-1 1.8.4 3.3 1.7 5 2.5.2.2.3 0 .2-.1zm15.3 4.2c-.5-1-1.6-1.2-2.6-1-.7.2-1.4.6-2 .9-1.4.7-2.6 1.1-4.2 1.2-.3 0-.3.5 0 .5 1.2 0 2.3-.2 3.4-.7 1.7-.7 3.3-2.2 5-.6.3.2.5 0 .4-.3zm37.4 15.8c-5.6-.4-10.5 2.8-16 1.9-5.4-.9-10.6-1.9-16.1-2.4-.3 0-.3.4-.1.5 6 .9 12.1 2.9 18.1 3.4 1.3.1 2.4-.1 3.6-.4 3.6-1.1 6.5-2.1 10.4-2.3.5-.2.5-.7.1-.7zm30.4-1.4c-6.1 0-13.7-.4-19.6 1.5-.2.1-.1.4.1.4 6.1-1.9 13.2-1 19.5-1.6.2 0 .2-.3 0-.3zm-61.1 24.5c-.8 0-1.2-.3-1.2-.9 0-.3-.1-.5-.1-.8-.1-.4-.1-.9-.1-1.3-.1-.9-.1-1.8-.1-2.7 0-.2-.3-.2-.3 0-.1 1.2-.1 2.4 0 3.6.1.7 0 1.8.5 2.4.4.6 1.5.7 1.6-.2-.1-.1-.2-.2-.3-.1zm36.7-.8c-2.9.3-5.8 1-8.6 1.5-3.6.7-6.6.3-10.2-.2-.2 0-.4.3-.1.4 2.5.4 5.1 1.1 7.6.9 3.7-.3 7.7-1.2 11.3-2.2.3-.1.3-.4 0-.4zm-94.1-22.8c-5.6-.1-10.8 1.8-16.3.2-4.9-1.4-9.8-1-14.8-.6-.1 0-.1.2 0 .2 3.2-.1 6.5-.4 9.7-.2 3.1.2 5.3 1.9 8.2 2.4 3.9.7 9.5-.6 13.3-1.6.2 0 .1-.4-.1-.4zm45.6 0c-6.7-.7-13.4-.6-20.1-1-6.1-.3-11.6.9-17.6 1-.2 0-.2.3 0 .3 5.9-.1 11.6-1.2 17.6-.8 6.7.4 13.4 1.2 20.1 1.3.5 0 .5-.7 0-.8zm1.7 10c-.1-.2-.3-.3-.4-.5-.4-.8-.3-1.4-.1-2.3.4-1.8.5-3.2-.5-4.9-.2-.3-.6 0-.5.3.6 1.1.8 2.4.4 3.6-.2.7-.8 1.4-.9 2.1-.1 1.2 1.4 1.7 1.3 3 0 .3.3.3.5.1.4-.5.4-.8.2-1.4zm.2 4.5c0-.3-.4-.3-.4 0 0 1.1-.1 2.3.1 3.4 0 .2.3.2.3 0 .1-1.1 0-2.3 0-3.4zM61 153.5c-2.8-.3-2.3-.8-4.9-2.9-.2-.2-.5-.8-.8-1.1-3.4-2.8-13 2.4-15.5-1.7-.1-.2-.4 0-.3.2 2.5 4.9 10-.1 14.1 2 2.1 1.1 1 2.4 2.7 3.5 1.2.8 3.5.4 4.8.3.1 0 .1-.3-.1-.3zm10.1 1.6c-1.6-.1-3.2.1-4.8.2-.3 0-.3.4 0 .4 1.6-.1 3.3-.1 4.8-.4.2-.1.1-.2 0-.2zm21.3-8.7c-1.6-.2-3.2-.1-4.8-.1-.3 0-.3.4 0 .4 1.6 0 3.2.1 4.8-.1.2 0 .2-.2 0-.2zm-69.7-8.8c-3.3-1.1-6.2-.6-9.6-.4-4 .2-7.8-.3-11.6-1.6-.2-.1-.4.3-.2.4 7.1 3.1 13.8 1.5 21.3 2 .2 0 .3-.3.1-.4zm4.3-.1c-.2 0-.3.4-.1.4 1.4.2 2.3 1.4 2.5 2.8 0 .1.2.1.2 0 .4-1.6-1.1-3.1-2.6-3.2zm3.2 6.8c0-.2-.3-.2-.3 0-.1 1.5-.4 3.2-.1 4.6 0 .2.4.2.4 0 .4-1.4.1-3.1 0-4.6zM71.8 173c-.1-.4-.6-.3-.6.1-.3 4.4.1 8.9.2 13.3 0 1.7.7 4.8.1 6.4-1.2 3.1-4.3 2.6-6.8 2.8-.2 0-.2.3 0 .3 4-.1 7.5 1.2 7.8-3.1.3-6.4.4-13.6-.7-19.8zm-.8-3.6c-2.5-.7-5.3 0-7.8.2-2.8.3-5.5.6-8.3 1.1-.2.1-.2.4.1.4 5.3-.1 10.7-1.4 16-1.3.2.1.2-.3 0-.4zm-24.1.2c-5.4-.9-11-1.3-16.4-.8-6.1.6-11.8 2.4-18 2.3-.2 0-.2.2 0 .3 4.8.5 9.5-.5 14.3-1.2 6.8-1 13.2-1.1 20-.2.2 0 .3-.4.1-.4zm6.6 10.5c-1.9.2-3.7.6-5.6.9-.2.1-.1.4.1.4 1.8-.3 3.7-.6 5.5-1.1.2 0 .1-.2 0-.2zm39.2 9.6c-1.6-2.5-5-3.6-7.9-2.8-.3.1-.2.5.1.5 2.9-.4 5.3.5 7.4 2.5.3.1.5 0 .4-.2zm11.5 1.7c-1.4-.1-3 .3-4.4.5-.3 0-.2.6.1.5 1.4-.2 3-.2 4.4-.7.1 0 .1-.3-.1-.3zm7.2-.3c-.2.1-.5.1-.7.2-.2.1-.1.3.1.3.2-.1.5-.2.7-.3.1-.1 0-.3-.1-.2zm17.1-4c-1.3-.9-3-1-4.5-.7-.3.1-.2.6.1.5 1.5-.3 2.9-.1 4.3.4.1.1.2-.1.1-.2zm7.3 1.6c-.7 0-1.4 0-2.2-.1-.2 0-.2.3 0 .3.7 0 1.4 0 2.2-.1.2 0 .2-.1 0-.1zm8 .4c-.6.1-1 .2-1.6.1-.3-.1-.5.4-.1.5.6.1 1.3.1 1.9-.2.1-.2 0-.4-.2-.4zm5.1-8.1c-.3 0-.3.5 0 .5s.3-.5 0-.5zm-64.4-10.8c-1.1-.8-2.4-.9-3.8-.7-.3 0-.2.4.1.4 1.2-.2 2.4.1 3.6.5.1.1.2-.1.1-.2zm48-.1c-2.8-.9-5.2-.4-8.1.1-4.4.8-8.4.6-12.8.7-3.3.1-6.4 1.4-9.8 1.3-3.3-.1-6.2-.9-9.5-.3-.2 0-.1.3 0 .3 3.2-.2 6.2.6 9.4.8 3.2.2 5.8-.9 8.9-1.1 3.6-.3 7.1.4 10.7-.1 3.7-.6 7-1.6 10.9-1 .6.2.8-.5.3-.7zm25.4-.2c-3.6-.9-7-.3-10.6 0-3.2.3-6.3-.8-9.3.4-.2.1-.1.5.1.4 3.2-.8 6.5.2 9.8.1 3.3-.2 6.6-.1 9.9 0 .4-.1.5-.7.1-.9zm1 1.6c-.2-.2-.5.1-.4.3.4.5.6 1 .8 1.5.2.5.2 1 .3 1.6.1.2.4.2.4 0 .3-1.3-.3-2.6-1.1-3.4zm10.8-.5c-.5 2.7-.8 5.4-.2 8.1 0 .2.4.2.4-.1.1-2.7 0-5.3.4-7.9 0-.2-.5-.4-.6-.1zm.5 11.7c0-.3-.4-.3-.4 0-.1 1 .3 1.9.8 2.7.7 1.2 1.2 2 1.2 3.4 0 .2.2.2.3.1 1.3-2-1.9-4.2-1.9-6.2zm20-12.2c-3.4-.3-6.8 0-10.3-.6-.3-.1-.4.4-.1.5 3.4.6 7.1 1.4 10.5.8.4 0 .2-.6-.1-.7z" fill="#9de0ad" stroke-width="none" opacity="1"></path></g><g id="svga-group-humanwrap-move" transform="matrix(1,0,0,1,0,0)"><g id="svga-group-humanwrap" transform="matrix(1,0,0,1,0,0)"><g id="svga-group-hair-back-move" transform="matrix(1,0,0,1,0,0)"><g id="svga-group-hair-back" transform="matrix(1,0,0,1,0,0)"><path id="SvgjsPath12503" d="M104.4 32.9S87 15.4 57 33.5s-24.1 62-14.9 79.8 6.2 36.5-6 35.2c0 0 1.3 8.4 15.7 8.7 0 0 6 4.3 15.7 1.4 0 0 1.6 4.3 12.2 1.4s40.6-1.1 40.6-1.1 7 3.8 14.1.8c0 0 11.1 2.7 16-2.2 0 0 11.9 3 16.2-6 0 0-11.6-.3-11.9-10.8s2.2-15.2 8.4-27.9 5.7-40.9-4.6-57.7-28.4-23.8-38.2-24.4-15.9 2.2-15.9 2.2z" fill="#ceb3b3" stroke-width="none" opacity="1" stroke="none"></path><path id="SvgjsPath12504" d="M106.2 35.4s13.8-7.5 35.1 5.4 24.3 44.8 22.7 58.5-15.4 28-13.8 39.4c1.6 11.3 8.6 14 12.9 14 0 0-9.4 4.3-13.8-4.3s-4.1-14.3 2.2-24.8 12.4-22.9 10.5-35.1-7.6-33.7-20.5-43.4c-12.9-9.7-24.2-11-35.3-9.7zm1.1 2.6s21.9-1.1 34.9 13.1c10.6 11.6 14.6 21.5 14.4 42.4-.2 15.3-10.5 29.3-13.5 37.4S140.5 152 148 156c0 0-8.1.2-10.7-11.4s8.4-25.3 11.9-30.4c3.5-5.1 5.2-22.5 3.1-34.2-2.5-13.7-5.9-22.3-20.5-32.1S107.3 38 107.3 38zm-4.8-3.6s-8.1-4-26.3-2.3C58 33.9 42.8 51.3 42.1 71.8s4.3 38.4 11.9 52.5-1 28.8-11.1 28.5c0 0 13.6-8.1 9.6-23s-10.4-18.9-12.4-45.2S44.6 48 53 40.6s24.7-16 49.5-6.2zm-1.3 3.3S80 30.9 63.3 48.3s-18.9 42.4-12.4 56.1 15.9 30.6 14.9 39.9-12.4 12.1-12.4 12.1 10.4-7.6 7.8-21-11.9-25.3-14.9-36.9c-3-11.6-3-25 4-39.7s23.4-30.7 50.9-21.1z" fill="#d6c4c4" stroke-width="none" opacity="1" stroke="none"></path><path id="SvgjsPath12505" d="M80.8 42.8s-22.6 3-27.4 30.2 4.8 42.1 9.1 49.2c4.3 7.1 9.1 14.4 8.9 22.1S68.1 157 68.1 157s5.8-4.6 6.3-12.4-3.8-18-5.6-22.6c-1.8-4.6-10.1-49.2-3.6-61.3s11-15.7 15.6-17.9zm36.1 2s12 3.8 19.1 12.2 12.4 24.6 9.1 38.8-15.5 37.8-15.7 44.6c-.2 6.8 1.6 13.2 5 19.4 0 0-9.3-4.9-8.8-18.1.5-13.2 7.1-27.6 9.9-36.5 0 0 4.7-23.7-2.3-37.8-7-14.1-17.1-22.8-17.1-22.8l.8.2zM73.9 158s4.4-7.7 3.4-23.1c0 0 3.3 4.3 3.9 13.2.7 8.9-7.3 9.9-7.3 9.9zm50.5-21.6s-2.6 12.2 1.6 22c0 0-5.8-2.6-6.7-10.6-.8-7.9 5.1-11.4 5.1-11.4z" fill="#c7a2a2" stroke-width="none" opacity="1" stroke="none"></path></g></g><g id="svga-group-humanbody-back"><path id="SvgjsPath12100" d="m168.5 219.5-1.7-21.5s.7-9-8.8-15.3-23.4-10.1-29.5-14.2c-6.1-4.1-9.2-4.5-9-16.9s.9-40.3.9-40.3H79.6s.7 27.9.9 40.3c.2 12.4-2.9 12.8-9 16.9-6.1 4.1-20 7.9-29.5 14.2S33.2 198 33.2 198l-1.6 21.5h136.9z" fill="#b2713b" stroke-width="none" opacity="1" stroke="none"></path></g><g id="svga-group-chinshadow-single"><path id="SvgjsPath12344" d="M82.6 154.1c5 1.3 7.5 8.3 17.4 8.3 10 0 12.5-7 17.4-8.3.74-.15 1.43-.3 2.1-.46-.01-.64-.01-1.32 0-2.04.2-12.4.9-40.3.9-40.3H79.6s.7 27.9.9 40.3c.01.69.01 1.35 0 1.97.67.16 1.36.33 2.1.53z" fill="#934d13" stroke-width="none" opacity="0.65" stroke="none"></path></g><g id="svga-group-humanbody-front"><path id="SvgjsPath12101" d="M73.8 175.9c5.1 2.9 11.8 5.2 17.6 5.7.4 0 .4-.6.1-.7-2.8-1.1-5.9-1.7-8.8-2.6-2.9-.9-5.8-2-8.8-2.7-.1-.1-.3.2-.1.3zm35.2 6.2c5.3-.6 11.3-3 15.9-5.8.3-.2.1-.6-.2-.5-2.6.9-5.2 2-7.8 2.9-2.6.9-5.4 1.5-8 2.5-.5.1-.5.9.1.9z" fill="#934d13" stroke-width="none" opacity="1" stroke="none"></path><path id="SvgjsPath12102" d="m168.4 219.4-2.1-21.4c0-2.2-.5-4.5-1.5-6.6-.9-2.1-2.3-3.9-3.9-5.5s-3.5-2.8-5.5-4c-2-1.2-4.1-2.2-6.2-3.1-4.2-1.9-8.6-3.6-12.9-5.4-2.2-.9-4.3-1.9-6.4-3-1.1-.6-2.1-1.2-3-1.9-1-.6-2-1.2-3-1.9s-2-1.5-2.8-2.6c-.8-1-1.3-2.2-1.7-3.4-.7-2.4-.8-4.8-.8-7.2 0-4.7.2-9.4.3-14.1.2-9.4.6-18.7.9-28l.6.6-20.4-.2-20.4-.1.3-.3.7 28c.1 4.7.3 9.3.4 14 0 2.4-.1 4.7-.8 7.1-.3 1.2-.9 2.3-1.6 3.3-.8 1-1.7 1.8-2.7 2.5s-2 1.3-2.9 2c-.9.6-1.9 1.3-3 1.9-2.1 1.2-4.2 2.1-6.4 3.1-4.3 1.9-8.6 3.6-12.8 5.6-2.1 1-4.2 2.1-6.1 3.2-2 1.2-3.8 2.4-5.4 4-1.6 1.6-2.9 3.4-3.8 5.4-.4 1-.8 2.1-1 3.1-.2 1.1-.4 2.2-.3 3.2v.2l-1.5 21.5-1-1.1 34 .1c11.3 0 22.7.1 34.1.2l34.2.3 34.4.5zm.2.2-34 .4-34.2.3c-11.4.1-22.9.2-34.4.2l-34.4.1h-1.1l.1-1.1 1.7-21.5v.1c-.1-5.1 2.2-9.8 5.7-13.3 1.7-1.7 3.8-3.1 5.8-4.3 2-1.2 4.2-2.2 6.3-3.2 4.3-2 8.7-3.7 13-5.4 2.1-.9 4.3-1.8 6.3-2.9 1-.5 1.9-1.1 3-1.8 1-.6 2-1.2 2.9-1.9.9-.6 1.8-1.4 2.4-2.2.7-.9 1.2-1.9 1.5-2.9.6-2.1.8-4.5.8-6.8 0-4.6-.1-9.3-.2-14l-.6-28v-.3h.3l20.4-.1 20.4-.2h.6v.6c-.1 9.3-.2 18.7-.4 28-.1 4.7-.2 9.4-.2 14 .1 2.3.2 4.6.8 6.7.3 1.1.8 2 1.4 2.9.6.8 1.4 1.6 2.4 2.2.9.6 1.9 1.3 2.9 1.9 1 .7 1.9 1.3 2.9 1.8 2 1.1 4.1 2.1 6.3 3 4.3 1.8 8.6 3.6 12.9 5.6 2.1 1 4.2 2.1 6.2 3.3 2 1.2 4 2.6 5.7 4.3 3.4 3.4 5.6 8.1 5.4 13v-.1l1.4 21.6zm-112.8-.4 1.9-13.8.1 13.8h-2zm88.6 0-1.9-13.8-.1 13.8h2z" fill="#843e04" stroke-width="none" opacity="1" stroke="none"></path></g><g id="svga-group-clothes-single"><path id="SvgjsPath12484" d="m143.2 220 .1-3.6 26.8-2.6s-1.2-16.5-1.9-20-2.3-8.6-12.1-14-27.7-12.4-27.7-12.4c-31.6 30.5-56-.1-56.7 0 0 0-17.9 7-27.7 12.4s-11.4 10.5-12.1 14-1.9 20-1.9 20l26.8 2.6v3.6h86.4z" fill="#1e78a2" stroke-width="none" opacity="1"></path><path id="SvgjsPath12485" d="M170.7 213.8c-.4-5.8-.7-11.6-1.3-17.4-.3-2.9-.9-6-2.6-8.6-1.6-2.6-3.9-4.6-6.4-6.3-2.4-1.7-5.1-3.1-7.7-4.4-2.6-1.3-5.3-2.5-7.9-3.7-5.3-2.4-10.7-4.5-16.2-6.6-.2-.1-.5 0-.7.1-3.8 3.8-8 7.1-12.7 9.6-4.7 2.5-9.9 4-15.2 4.1-2.7 0-5.3-.3-7.9-.9-2.6-.7-5.1-1.7-7.4-2.9s-4.6-2.7-6.7-4.3c-1.1-.8-2.1-1.7-3.1-2.6-.5-.4-1-.9-1.4-1.4l-.7-.7-.4-.4-.2-.2-.1-.1-.1-.1s-.2-.1-.3-.1h-.1c-5.4 2.1-10.8 4.2-16.2 6.5-2.7 1.1-5.3 2.3-8 3.6-2.6 1.3-5.2 2.6-7.7 4.3-2.4 1.7-4.8 3.7-6.4 6.3-1.7 2.6-2.4 5.7-2.7 8.6-.7 5.8-1.1 11.6-1.6 17.4 0 .5.4 1 .9 1.1l13.4 1.3 12.5 1.2v2.7c0 .6.5 1 1 1 7.3 0 14.5 0 21.8-.1l21.7-.2 43-.6.2-3.5 13.2-1 13.4-1.1c.4 0 .6-.3.6-.6zm-14.1.8-13.4 1.6c-.1 0-.2.1-.2.2l.1 3.6-43.4-.6-21.5-.2c-6.8-.1-13.6-.1-20.4-.1v-2.6c0-.5-.4-1-.9-1L43.5 214 31 212.9c.4-5.4.8-10.9 1.3-16.3.3-2.9.9-5.6 2.3-7.9 1.5-2.3 3.6-4.2 5.9-5.9 2.3-1.6 4.8-3 7.4-4.3s5.2-2.6 7.8-3.8c5.2-2.4 10.5-4.6 15.8-6.8l.2.1.4.3.7.7c.5.5 1 .9 1.5 1.4 1 .9 2.1 1.8 3.1 2.6 2.2 1.6 4.4 3.1 6.8 4.4 4.8 2.5 10.2 3.9 15.6 3.9s10.8-1.5 15.7-3.9c4.7-2.4 9-5.6 12.8-9.2 5.2 2.1 10.4 4.4 15.6 6.7 2.6 1.2 5.3 2.4 7.8 3.7 2.6 1.3 5.1 2.6 7.4 4.2 2.3 1.6 4.5 3.5 6 5.8s2.2 5 2.4 7.9c.3 2.9.6 5.8.9 8.6l.7 8.1-12.5 1.4zm-100.5-7.3-.3-1.1-.4-1c-.9-2.8-2.3-5.4-3.8-7.9-1.6-2.5-3.4-4.8-5.5-6.8s-4.4-3.9-7-5.1c1.2.8 2.3 1.7 3.4 2.6 1.1.9 2.1 1.9 3.1 3 1.9 2.1 3.7 4.4 5.2 6.8.4.6.7 1.2 1.1 1.8.4.6.7 1.2 1 1.9.3.6.7 1.3 1 1.9.3.7.6 1.3.9 2l.4 1 .4 1 .7 2c.5 1.4.8 2.8 1.3 4.1-.3-1.4-.5-2.9-.9-4.3l-.6-1.9zm92.9-9.9c-1.5 2.5-2.9 5.1-3.8 7.9l-.4 1-.3 1.1-.6 2.1c-.3 1.4-.6 2.8-.9 4.3.5-1.4.8-2.8 1.3-4.1l.7-2 .4-1 .4-1c.3-.6.6-1.3.9-2 .3-.6.6-1.3 1-1.9.3-.6.6-1.3 1-1.9.4-.6.7-1.2 1.1-1.8 1.5-2.4 3.3-4.7 5.2-6.8.9-1.1 2-2.1 3.1-3 1.1-1 2.2-1.9 3.4-2.6-2.6 1.3-4.9 3.1-7 5.1-2.1 1.8-3.9 4.2-5.5 6.6z" fill="#005a83" stroke-width="none" opacity="1"></path></g><g id="svga-group-head" transform="matrix(1,0,0,1,0,0)"><g id="svga-group-ears-left-move" transform="matrix(1,0,0,1,0,0)"><g id="svga-group-ears-left" transform="matrix(1,0,0,1,0,0)"><path id="SvgjsPath12302" d="M64 93.7s-2.3-2.2-5-3.3-5.7.7-6.6 3.4 1.2 14 4.7 18.1 5.8 4.4 8.1 2.3c2.3-2 6.4-9.9-1.2-20.5z" fill="#b2713b" stroke-width="none" opacity="1" stroke="none"></path><path id="SvgjsPath12303" d="M65.2 95.3c.4.6.7 1.2 1.1 1.8.4.6.7 1.3 1 1.9.3.7.6 1.3.8 2 .2.7.5 1.4.6 2.2.1.4.1.8.2 1.1l.1 1.2c0 1.6-.2 3.1-.6 4.6-.5 1.5-1.1 2.8-2.1 3.9-.2.3-.5.5-.7.8-.3.2-.5.4-.8.6-.6.4-1.2.7-1.9.7-.7.1-1.4 0-2-.3s-1.2-.7-1.7-1.1-1-.9-1.5-1.5c-.5-.5-.9-1.1-1.3-1.7-1.5-2.5-2.4-5.3-3.2-8.1-.4-1.4-.7-2.8-1-4.3s-.5-2.9-.4-4.5c0-.4.1-.8.2-1.3.1-.2.1-.4.2-.6l.3-.5c.4-.7.9-1.2 1.4-1.7 1.1-.9 2.4-1.3 3.7-1.1.6.1 1.3.3 1.8.6.6.3 1.1.6 1.7 1 1.1.7 2.1 1.5 3.1 2.4l1 1.9zm-4.4-3.8c-.6-.3-1.1-.5-1.7-.7-.6-.2-1.1-.3-1.7-.3-1.1.1-2.2.5-3.1 1.3-.4.4-.8.8-1.1 1.4-.1.3-.3.5-.4.8-.1.3-.2.5-.2.9-.2 1.3-.1 2.8.1 4.2.2 1.4.4 2.9.7 4.3.7 2.8 1.7 5.6 3.3 7.7.8 1 1.8 1.9 2.7 2.7 1 .7 2.1 1.2 3.1 1 .5-.1 1-.3 1.5-.6s.9-.7 1.3-1.2c.7-1 1.4-2.1 1.7-3.4.4-1.3.6-2.6.7-4 0-1.4-.1-2.8-.4-4.2-.6-2.8-1.8-5.4-3.4-7.6-.9-1-2-1.7-3.1-2.3z" fill="#a35e26" stroke-width="none" opacity="1" stroke="none"></path><path id="SvgjsPath12304" d="M55.9 93.3c3 .5 5 5.7 5.6 9.2.1.1.1.2.2.3.3.5-.4 1.1-.7.6-.4-.7-1-1.5-1.7-1.8-1.3-.5-2 1-1.7 2.5.4 1.7 1.5 2.8 2.5 4.1.1.1 0 .3-.1.2-1.6-1-4-4.5-2.9-6.7.8-1.6 2.1-1.3 3.2-.4-.7-2-1.3-4-2.8-5.5-.5-.5-1.4-1.3-2.1-1.2-1.2.2-1.2 2-1.3 3.1-.1 1.5.1 3.1.3 4.7 0 .2-.2.2-.2.1-.6-2.4-1.8-9.8 1.7-9.2z" fill="#934d13" stroke-width="none" opacity="1" stroke="none"></path></g></g><g id="svga-group-ears-right-move" transform="matrix(1,0,0,1,0,0)"><g id="svga-group-ears-right" transform="matrix(1,0,0,1,0,0)"><path id="SvgjsPath12305" d="M136 93.7s2.3-2.2 5-3.3 5.7.7 6.6 3.4-1.2 14-4.7 18.1-5.8 4.4-8.1 2.3c-2.3-2-6.4-9.9 1.2-20.5z" fill="#b2713b" stroke-width="none" opacity="1" stroke="none"></path><path id="SvgjsPath12306" d="M136 93.6c1-.9 2-1.7 3.1-2.4.5-.4 1.1-.7 1.7-1 .6-.3 1.2-.5 1.8-.6 1.3-.1 2.6.2 3.7 1.1.5.4 1 1 1.4 1.7l.3.5c.1.2.1.4.2.6.1.4.2.9.2 1.3.1 1.6-.2 3.1-.4 4.5-.3 1.5-.6 2.9-1 4.3-.8 2.8-1.7 5.6-3.2 8.1-.4.6-.8 1.1-1.3 1.7-.4.5-.9 1-1.5 1.5-.5.4-1.1.8-1.7 1.1-.6.3-1.3.4-2 .3s-1.3-.4-1.9-.7c-.3-.2-.6-.4-.8-.6-.3-.2-.5-.5-.7-.8-.9-1.1-1.6-2.5-2.1-3.9-.4-1.5-.7-3-.6-4.6l.1-1.2c0-.4.1-.8.2-1.1.1-.8.4-1.5.6-2.2.3-.7.5-1.4.8-2s.6-1.3 1-1.9.7-1.2 1.1-1.8l1-1.9zm0 .1c-1.6 2.2-2.8 4.9-3.4 7.6-.3 1.4-.4 2.8-.4 4.2 0 1.4.2 2.7.7 4 .4 1.3 1 2.4 1.7 3.4.4.5.8.9 1.3 1.2.5.3.9.6 1.5.6 1 .2 2.1-.3 3.1-1 1-.8 1.9-1.7 2.7-2.7 1.6-2.1 2.6-4.9 3.3-7.7.4-1.4.6-2.8.7-4.3.2-1.4.2-2.9.1-4.2 0-.3-.1-.6-.2-.9-.1-.3-.2-.6-.4-.8-.3-.5-.7-1-1.1-1.4-.9-.7-1.9-1.2-3.1-1.3-.6 0-1.1.1-1.7.3-.6.2-1.1.4-1.7.7-1 .7-2.1 1.4-3.1 2.3z" fill="#a35e26" stroke-width="none" opacity="1" stroke="none"></path><path id="SvgjsPath12307" d="M144.1 93.3c-3 .5-5 5.7-5.6 9.2-.1.1-.1.2-.2.3-.3.5.4 1.1.7.6.4-.7 1-1.5 1.7-1.8 1.3-.5 2 1 1.7 2.5-.4 1.7-1.5 2.8-2.5 4.1-.1.1 0 .3.1.2 1.6-1 4-4.5 2.9-6.7-.8-1.6-2.1-1.3-3.2-.4.7-2 1.3-4 2.8-5.5.5-.5 1.4-1.3 2.1-1.2 1.2.2 1.2 2 1.3 3.1.1 1.5-.1 3.1-.3 4.7 0 .2.2.2.2.1.6-2.4 1.8-9.8-1.7-9.2z" fill="#934d13" stroke-width="none" opacity="1" stroke="none"></path></g></g><g id="svga-group-faceshape-wrap" transform="matrix(1,0,0,1,0,0)"><g id="svga-group-faceshape-single"><path id="SvgjsPath12334" d="M141 85.4c-1.2-28.5-19.88-43.56-41.18-43.56C78.42 41.84 60.2 56.9 59 85.4c0 0-.2 5.4.2 12.1.3 6.6 1.3 11.3.8 19.3s3.43 16.07 8.63 19.97c6 4.5 8.9 4.41 13.9 5.71s7.63 8.42 17.53 8.42c10 0 12.4-6.88 17.3-8.18 5-1.3 8.28-1.37 14.28-5.87 5.2-3.9 8.86-12.04 8.36-20.04s.5-12.6.8-19.3c.4-6.71.2-12.11.2-12.11z" fill="#b2713b" stroke-width="none" opacity="1" stroke="none"></path><path id="SvgjsPath12335" d="M68.2 137.2c6 4.5 9.4 4.8 14.4 6.1s7.5 8.3 17.4 8.3 12.5-7 17.4-8.3c5-1.3 8.4-1.6 14.4-6.1 5.2-3.9 8.7-12.5 8.2-20.5s.5-12.6.8-19.3c.3-6.6.2-12.1.2-12.1-1.2-28.5-19.7-44.1-41-44.1S60.2 57 59 85.4c0 0-.2 5.4.2 12.1.3 6.6 1.3 11.3.8 19.3-.5 7.9 3 16.5 8.2 20.4zm-8.3-43.11c-.1-1.62-.1-3.35-.1-4.97v-3.65l.1-1.22c0-.81.1-1.62.2-2.43l.3-2.43c.5-3.24 1.2-6.39 2.3-9.53 2.1-6.18 5.7-11.76 10.3-16.12 2.3-2.13 4.9-4.06 7.7-5.47.7-.3 1.4-.71 2.1-1.01.4-.2.7-.3 1.1-.51l2.2-.81s1.8-.61 2.2-.71.7-.2 1.1-.3c12-3.04 25.4-.81 35.4 7 5 3.85 9 9.12 11.8 15 2.7 5.98 4.1 12.57 4.3 19.16v4.97c0 1.62-.1 3.35-.2 4.97-.2 3.35-.6 6.59-1 9.83-.4 3.35-.8 6.69-.8 10.04v3.66l-.1 1.22c-.2 1.52-.5 3.14-.9 4.56-.4 1.52-1 2.94-1.7 4.36s-1.5 2.74-2.4 3.85c-.9 1.22-1.9 2.23-3 3.04l-.2.2-.2.2-.5.3c-.3.2-.6.41-1 .61-.6.41-1.3.81-2 1.12-1.3.71-2.7 1.22-4.1 1.72-1.4.41-3 .81-4.6 1.12l-1.2.3h-.2l-.2.1-.4.1c-.3.1-.5.2-.8.3-1 .41-1.9 1.01-2.6 1.52-1.5 1.12-2.7 2.23-3.9 3.14-1.2.91-2.4 1.62-3.6 2.13-1.3.51-2.6.81-4 .91-.7.1-3.5-.1-4.2-.2-1.4-.3-2.6-.71-3.9-1.32-1.2-.61-2.4-1.52-3.6-2.53-.6-.51-1.3-1.01-2-1.62-.7-.51-1.5-1.12-2.4-1.62-.5-.2-1-.51-1.5-.61l-1.4-.41-2.4-.61c-1.6-.41-3-.71-4.4-1.32-1.4-.51-2.7-1.22-4-2.03-.3-.2-.6-.41-1-.61-.3-.2-.6-.41-.9-.71l-.8-.71-.2-.2-.6-.61c-1-1.01-1.9-2.23-2.7-3.45-.8-1.32-1.5-2.64-2-4.06s-1-2.94-1.3-4.46-.5-3.04-.5-4.56v-5.07c0-1.72-.1-3.35-.3-5.07-.3-3.35-.8-6.59-1.1-9.94 0-1.31-.1-2.93-.2-4.55z" fill="#843e04" stroke-width="none" opacity="1" stroke="none"></path></g></g><g id="svga-group-mouth-single-move" transform="matrix(1,0,0,1,0,0)"><g id="svga-group-mouth-single" transform="matrix(1,0,0,1,0,0)"><path id="SvgjsPath12290" d="M90 128.1s2 2.6 4 3.8 9.4 1.3 13.4-.2 7.5-6.6 8.1-7.8c0 0-2.9 1.9-7.1 1.5-4.3-.3-13.7.8-15.6 1.6s-2.8 1.1-2.8 1.1z" fill="#904539" stroke-width="none" opacity="1" transform="translate(0 3)" stroke="none"></path><path id="SvgjsPath12291" d="M117.2 121.6c-.5-.4-1-.6-1.6-.4-.4.1-.4.7-.1.8.1.1.2.1.3.2l-.6.6c-.7.8-2.3 2.2-5.3.8-3-1.4-5.1-1.8-7.1-.5s-2.7.9-4.6.2c-1.9-.6-4.3.4-5.5 1.7-1.2 1.3-2.2 2.6-4.1 2s-.8.5-.8.5c.2.1 1.5 1.1 2.5 1.4 1.1.2 2.1-.5 4.5-1.2s8.1-1.2 11.9-1.1c5.4.2 6.8-.6 8.3-1.8.7-.6 1.2-1.1 1.5-1.6.1.2.2.4.4.5.3.2.8.1.9-.3.2-.8-.2-1.4-.6-1.8z" fill="#883b2f" stroke-width="none" opacity="1" transform="translate(0 3)" stroke="none"></path><path id="SvgjsPath12292" d="M95.7 129.5c3.4 0 7.4.1 10.8-.9.5-.1.5-.8 0-1-3.4-1-7.7-.1-10.9 1.2-.3.2-.3.7.1.7z" fill="#984f44" stroke-width="none" opacity="1" transform="translate(0 3)" stroke="none"></path></g></g><g id="svga-group-eyes-left-move" transform="matrix(1,0,0,1,0,0)"><g id="svga-group-eyes-left" transform="matrix(1,0,0,1,0,0)"><g id="svga-group-eyesback-left"><path id="SvgjsPath12392" d="M92 99.3s-1.6-1.9-4.3-3.5c-2.7-1.6-6.5-2.8-10.1-2.4-3.5.4-6.5 1.3-6.4 1.4s1.1 2.3 3.4 3.6c2.3 1.3 4.9 2.6 8.2 2.7 3.3 0 6-.4 7.5-1s1.7-.8 1.7-.8z" fill="#ffffff" stroke-width="none" opacity="1"></path></g><g id="svga-group-eyesiriswrapper-left" transform="matrix(1,0,0,1,0,0)"><g id="svga-group-eyesiriscontrol-left" transform="matrix(1,0,0,1,0,0)"><g id="svga-group-eyesiris-left" transform="matrix(1,0,0,1,0,0)"><path id="SvgjsPath12348" d="M82 91.5c2.7 0 4.9 2.2 4.9 4.9s-2.2 4.9-4.9 4.9-4.9-2.2-4.9-4.9 2.2-4.9 4.9-4.9z" fill="#681711" stroke-width="none" opacity="1"></path><path id="SvgjsPath12349" d="M82 91.8c2.6 0 4.6 2.1 4.6 4.6 0 2.6-2.1 4.6-4.6 4.6-2.6 0-4.6-2.1-4.6-4.6-.1-2.5 2-4.6 4.6-4.6m0-.5c-2.8 0-5.2 2.3-5.2 5.2s2.3 5.2 5.2 5.2 5.2-2.3 5.2-5.2-2.4-5.2-5.2-5.2z" fill="#490500" stroke-width="none" opacity="1"></path><path id="SvgjsPath12350" d="M84.4 92.1c-.1.3-.3.6-.5.9s-.4.6-.6.8c.1-.3.3-.6.5-.9.2-.2.4-.5.6-.8zm.7.6c-.2.3-.4.6-.6.8-.2.3-.4.5-.7.7.2-.3.4-.6.6-.8.3-.2.5-.5.7-.7zm-.8 1.9.6-.6c.2-.2.4-.4.7-.5l-.6.6c-.2.2-.4.4-.7.5zm.3.6c.3-.2.6-.3.8-.4.3-.1.6-.2.9-.2-.3.2-.6.3-.8.4-.3 0-.6.1-.9.2zm.2.5c.3-.1.6-.2.8-.2.3-.1.6-.1.9-.1-.3.1-.6.2-.8.2-.3.1-.5.1-.9.1zm.1.6c.1 0 .3 0 .4-.1h.4c.3 0 .6.1.8.2h-.9c-.1 0-.3 0-.4-.1 0 .1-.1.1-.3 0zm-.1.6c.3 0 .6.1.9.1s.6.2.8.3c-.3 0-.6-.1-.9-.1-.2-.1-.5-.2-.8-.3zm0 .7c.1 0 .3.1.4.1.1.1.2.1.4.2s.5.3.7.5c-.3-.1-.5-.2-.8-.3-.1-.1-.2-.1-.4-.2-.1-.2-.2-.2-.3-.3zm-.5.7c.3.1.5.2.7.4.2.2.4.3.6.5-.3-.1-.5-.2-.7-.4-.2-.1-.4-.3-.6-.5zm-.9-6.5c0 .3-.1.6-.2.9l-.3.9c0-.3.1-.6.2-.9l.3-.9zm-1.2 1.7c-.1-.3 0-.6 0-.9s.1-.6.2-.9c.1.3 0 .6 0 .9 0 .2-.1.6-.2.9zm-1-1.9c.1.3.2.6.2.9s.1.6.1.9l-.3-.9c0-.2-.1-.3-.1-.5.1-.1.1-.2.1-.4zm-1.1.4c.2.3.3.6.4.9s.2.6.2.9c-.2-.3-.3-.6-.4-.9s-.2-.6-.2-.9zm-.8.5c.2.2.4.5.6.8s.3.6.5.9c-.2-.2-.4-.5-.6-.8-.2-.3-.4-.6-.5-.9zm-1 .8.9.6c.3.2.6.5.8.8l-.9-.6-.8-.8zm-.3.9c.3.1.5.2.7.3.2.1.4.3.6.5-.3-.1-.5-.2-.7-.3-.2-.1-.4-.3-.6-.5zm-.4 1c.2 0 .5 0 .7.1s.4.1.7.3c-.2 0-.5 0-.7-.1s-.5-.1-.7-.3zm-.2 1.1c.3-.1.5-.1.8-.1s.5 0 .8.1c-.3.1-.5.1-.8.1s-.5 0-.8-.1zm.1.9c.2-.1.5-.2.7-.2.2-.1.5-.1.8-.1-.2.1-.5.2-.7.2-.3.1-.5.1-.8.1zm.1.8c.3-.2.5-.2.8-.3s.6-.2.9-.2c-.3.2-.5.2-.8.3-.3.1-.6.2-.9.2zm.4.9c.2-.2.5-.3.7-.4s.5-.2.8-.3c-.2.2-.5.3-.7.4-.2.1-.5.2-.8.3zm.8.8c.1-.2.3-.4.4-.6.2-.2.3-.3.6-.5-.1.2-.3.4-.4.6s-.4.4-.6.5zm.8.8c.1-.3.2-.6.4-.9.2-.3.3-.6.5-.8-.1.3-.2.6-.4.9-.1.3-.3.5-.5.8zm1.1.3c0-.3 0-.5.1-.8s.1-.5.3-.7c0 .3 0 .5-.1.8-.1.3-.1.5-.3.7zm2.5-1.6c.1.2.2.5.3.7s.1.5.2.8c-.1-.2-.2-.5-.3-.7-.1-.3-.2-.6-.2-.8zm.7-.3.5.5c.1.2.3.4.3.6l-.5-.5-.3-.6zm-1.4.5c.1.2.1.5.2.7v.7c-.1-.2-.1-.5-.2-.7v-.7zm-.6.1c.1.2.1.5.1.7s0 .5-.1.7c-.1-.2-.1-.5-.1-.7s0-.5.1-.7z" fill="#490500" stroke-width="none" opacity="1"></path><path id="SvgjsPath12351" d="M82 93.6c1.5 0 2.8 1.3 2.8 2.8s-1.3 2.8-2.8 2.8-2.8-1.3-2.8-2.8 1.3-2.8 2.8-2.8z" fill="#000000" stroke-width="none" opacity="1"></path><path id="SvgjsPath12352" d="m81.3 94.2-.6-.6c-.2-.2-.4-.3-.7-.3-.2 0-.5.1-.7.3-.2.2-.3.4-.3.7s.1.5.3.7l.6.6c.2.2.4.3.7.3.2 0 .5-.1.7-.3.4-.4.4-1 0-1.4zm2.6 4.7c.9 0 .9-1.4 0-1.4s-.9 1.4 0 1.4z" fill="#ffffff" stroke-width="none" opacity="1"></path></g></g></g><g id="svga-group-eyesfront-left"><path id="SvgjsPath12400" d="M70.73 98.03c0 6.9 4.93 12.5 11.02 12.5s11.02-5.6 11.02-12.5-4.93-12.5-11.02-12.5-11.02 5.59-11.02 12.5zm.42-3.19c-.07-.11 2.9-.93 6.44-1.36 3.54-.43 7.34.79 10.06 2.36 2.72 1.58 4.33 3.48 4.33 3.48s-.35.17-1.78.78c-1.43.61-4.22 1.07-7.48 1.04-3.26-.04-5.83-1.36-8.16-2.68-2.34-1.33-3.34-3.52-3.41-3.62z" fill="#b2713b" stroke-width="none" opacity="1" stroke="none"></path><path id="SvgjsPath12401" d="M92.14 98.9c-1.64-4.26-4.72-7.79-9.36-8.78-4.77-1.01-8.68 1.11-12.08 4.21-.06.06-.18-.02-.12-.1 5.62-8.37 19.63-4.78 21.65 4.63.01.07-.07.09-.09.04z" fill="#a35e26" stroke-width="none" opacity="1" stroke="none"></path><path id="SvgjsPath12402" d="M63.55 95.41c2.13.29 4.01-.12 5.87-.69-1.83-.08-3.62-.65-5.17-1.79-.16-.11-.07-.43.15-.34 2.45 1 4.91 1.54 7.45 1.35.82-.27 1.66-.52 2.53-.72 2.12-.49 4.34-.6 6.48-.26 4.19.66 8.97 2.88 11.37 6.52.04.07-.05.12-.1.08-4.31-3.46-8.42-5.76-14.13-5.63-2.16.05-4.27.7-6.39 1.29 4.59 6 13.2 7.22 19.92 4.28.03-.02.06.03.03.05-6.58 3.27-16.06 2.28-20.4-4.21-2.56.7-5.11 1.26-7.72.5-.28-.09-.16-.47.11-.43z" fill="#09152e" stroke-width="none" opacity="1" stroke="none"></path></g></g></g><g id="svga-group-eyes-right-move" transform="matrix(1,0,0,1,0,0)"><g id="svga-group-eyes-right" transform="matrix(1,0,0,1,0,0)"><g id="svga-group-eyesback-right"><path id="SvgjsPath12393" d="M108 99.3s1.6-1.9 4.3-3.5c2.7-1.6 6.5-2.8 10.1-2.4 3.5.4 6.5 1.3 6.4 1.4s-1.1 2.3-3.4 3.6c-2.3 1.3-4.9 2.6-8.2 2.7-3.3 0-6-.4-7.5-1s-1.7-.8-1.7-.8z" fill="#ffffff" stroke-width="none" opacity="1"></path></g><g id="svga-group-eyesiriswrapper-right" transform="matrix(1,0,0,1,0,0)"><g id="svga-group-eyesiriscontrol-right" transform="matrix(1,0,0,1,0,0)"><g id="svga-group-eyesiris-right" transform="matrix(1,0,0,1,0,0)"><path id="SvgjsPath12353" d="M118 91.5c2.7 0 4.9 2.2 4.9 4.9s-2.2 4.9-4.9 4.9-4.9-2.2-4.9-4.9 2.2-4.9 4.9-4.9z" fill="#681711" stroke-width="none" opacity="1"></path><path id="SvgjsPath12354" d="M118 91.8c2.6 0 4.6 2.1 4.6 4.6 0 2.6-2.1 4.6-4.6 4.6-2.6 0-4.6-2.1-4.6-4.6s2.1-4.6 4.6-4.6m0-.5c-2.8 0-5.2 2.3-5.2 5.2s2.3 5.2 5.2 5.2 5.2-2.3 5.2-5.2-2.3-5.2-5.2-5.2z" fill="#490500" stroke-width="none" opacity="1"></path><path id="SvgjsPath12355" d="M120.5 92.1c-.1.3-.3.6-.5.9s-.4.6-.6.8c.1-.3.3-.6.5-.9.2-.2.3-.5.6-.8zm.7.6c-.2.3-.4.6-.6.8-.2.3-.4.5-.7.7.2-.3.4-.6.6-.8.2-.2.4-.5.7-.7zm-.9 1.9.6-.6c.2-.2.4-.4.7-.5l-.6.6c-.2.2-.4.4-.7.5zm.3.6c.3-.2.6-.3.8-.4.3-.1.6-.2.9-.2-.3.2-.6.3-.8.4-.3 0-.6.1-.9.2zm.3.5c.3-.1.6-.2.8-.2.3-.1.6-.1.9-.1-.3.1-.6.2-.8.2-.3.1-.6.1-.9.1zm.1.6c.1 0 .3 0 .4-.1h.4c.3 0 .6.1.8.2h-.9c-.1 0-.3 0-.4-.1 0 .1-.2.1-.3 0zm-.2.6c.3 0 .6.1.9.1s.6.2.8.3c-.3 0-.6-.1-.9-.1-.2-.1-.5-.2-.8-.3zm0 .7c.1 0 .3.1.4.1.1.1.2.1.4.2s.5.3.7.5c-.3-.1-.5-.2-.8-.3-.1-.1-.2-.1-.4-.2 0-.2-.2-.2-.3-.3zm-.4.7c.3.1.5.2.7.4.2.2.4.3.6.5-.3-.1-.5-.2-.7-.4-.3-.1-.5-.3-.6-.5zm-.9-6.5c0 .3-.1.6-.2.9l-.3.9c0-.3.1-.6.2-.9 0-.3.1-.6.3-.9zm-1.2 1.7c-.1-.3 0-.6 0-.9s.1-.6.2-.9c.1.3 0 .6 0 .9-.1.2-.1.6-.2.9zm-1.1-1.9c.1.3.2.6.2.9s.1.6.1.9l-.3-.9c0-.2-.1-.3-.1-.5.1-.1.1-.2.1-.4zm-1 .4c.2.3.3.6.4.9s.2.6.2.9c-.2-.3-.3-.6-.4-.9-.1-.3-.2-.6-.2-.9zm-.9.5c.2.2.4.5.6.8s.3.6.5.9c-.2-.2-.4-.5-.6-.8-.2-.3-.4-.6-.5-.9zm-.9.8.9.6c.3.2.6.5.8.8l-.9-.6c-.3-.3-.6-.5-.8-.8zm-.3.9c.3.1.5.2.7.3.2.1.4.3.6.5-.3-.1-.5-.2-.7-.3-.2-.1-.4-.3-.6-.5zm-.4 1c.2 0 .5 0 .7.1s.4.1.7.3c-.2 0-.5 0-.7-.1-.3-.1-.5-.1-.7-.3zm-.2 1.1c.3-.1.5-.1.8-.1s.5 0 .8.1c-.3.1-.5.1-.8.1s-.6 0-.8-.1zm.1.9c.2-.1.5-.2.7-.2.2-.1.5-.1.8-.1-.2.1-.5.2-.7.2-.3.1-.6.1-.8.1zm0 .8c.3-.2.5-.2.8-.3s.6-.2.9-.2c-.3.2-.5.2-.8.3-.3.1-.6.2-.9.2zm.5.9c.2-.2.5-.3.7-.4s.5-.2.8-.3c-.2.2-.5.3-.7.4-.3.1-.5.2-.8.3zm.7.8c.1-.2.3-.4.4-.6.2-.2.3-.3.6-.5-.1.2-.3.4-.4.6-.2.2-.3.4-.6.5zm.9.8c.1-.3.2-.6.4-.9.2-.3.3-.6.5-.8-.1.3-.2.6-.4.9-.1.3-.3.5-.5.8zm1.1.3c0-.3 0-.5.1-.8s.1-.5.3-.7c0 .3 0 .5-.1.8-.1.3-.2.5-.3.7zm2.5-1.6c.1.2.2.5.3.7s.1.5.2.8c-.1-.2-.2-.5-.3-.7-.1-.3-.2-.6-.2-.8zm.7-.3.5.5c.1.2.3.4.3.6l-.5-.5-.3-.6zm-1.4.5c.1.2.1.5.2.7v.7c-.1-.2-.1-.5-.2-.7s-.1-.4 0-.7zm-.7.1c.1.2.1.5.1.7s0 .5-.1.7c-.1-.2-.1-.5-.1-.7s0-.5.1-.7z" fill="#490500" stroke-width="none" opacity="1"></path><path id="SvgjsPath12356" d="M118 93.6c1.5 0 2.8 1.3 2.8 2.8s-1.3 2.8-2.8 2.8-2.8-1.3-2.8-2.8 1.3-2.8 2.8-2.8z" fill="#000000" stroke-width="none" opacity="1"></path><path id="SvgjsPath12357" d="m117.3 94.2-.6-.6c-.2-.2-.4-.3-.7-.3-.2 0-.5.1-.7.3-.2.2-.3.4-.3.7s.1.5.3.7l.6.6c.2.2.4.3.7.3.2 0 .5-.1.7-.3.4-.4.4-1 0-1.4zm2.6 4.7c.9 0 .9-1.4 0-1.4s-.9 1.4 0 1.4z" fill="#ffffff" stroke-width="none" opacity="1"></path></g></g></g><g id="svga-group-eyesfront-right"><path id="SvgjsPath12403" d="M118.26 85.53c-6.08 0-11.02 5.6-11.02 12.5s4.93 12.5 11.02 12.5 11.02-5.6 11.02-12.5-4.94-12.5-11.02-12.5zm7.19 12.92c-2.33 1.32-4.9 2.65-8.16 2.68-3.26.04-6.05-.43-7.48-1.04-1.43-.61-1.78-.78-1.78-.78s1.6-1.9 4.33-3.48c2.72-1.58 6.52-2.79 10.06-2.36 3.54.43 6.52 1.25 6.44 1.36-.08.11-1.08 2.3-3.41 3.62z" fill="#b2713b" stroke-width="none" opacity="1" stroke="none"></path><path id="SvgjsPath12406" d="M107.86 98.9c1.64-4.26 4.72-7.79 9.36-8.78 4.77-1.01 8.68 1.11 12.08 4.21.06.06.18-.02.12-.1-5.62-8.37-19.63-4.78-21.65 4.63-.01.07.07.09.09.04z" fill="#a35e26" stroke-width="none" opacity="1" stroke="none"></path><path id="SvgjsPath12407" d="M136.45 95.41c-2.13.29-4.01-.12-5.87-.69 1.83-.08 3.62-.65 5.17-1.79.16-.11.07-.43-.15-.34-2.45 1-4.91 1.54-7.45 1.35-.82-.27-1.66-.52-2.53-.72-2.12-.49-4.34-.6-6.48-.26-4.19.66-8.97 2.88-11.37 6.52-.04.07.05.12.1.08 4.31-3.46 8.42-5.76 14.13-5.63 2.16.05 4.27.7 6.39 1.29-4.59 6-13.2 7.22-19.92 4.28-.03-.02-.06.03-.03.05 6.58 3.27 16.06 2.28 20.4-4.21 2.56.7 5.11 1.26 7.72.5.28-.09.16-.47-.11-.43z" fill="#09152e" stroke-width="none" opacity="1" stroke="none"></path></g></g></g><g id="svga-group-facehighlight-single"></g><g id="svga-group-eyebrows-left-move" transform="matrix(1,0,0,1,0,0)"><g id="svga-group-eyebrows-left-rotate" transform="matrix(1,0,0,1,0,0)"><g id="svga-group-eyebrows-left" transform="matrix(1,0,0,1,0,0)"><path id="SvgjsPath12460" d="M70.7 85.3c.1 0 .3 0 .4.1.2-.1.6-.1.9 0 .1 0 .3 0 .4-.1.5-.1.9-.1 1.4-.1h.5c.5-.2 1-.3 1.5-.3.8-.1 1.6-.2 2.4-.2.3-.1.5-.1.8-.2.5-.1.9-.3 1.4-.4.4-.1.8-.1 1.3-.2 1.1-.4 2.2-.8 3.4-1.2h.2c.8-.4 1.7-.8 2.7-1h.1c.6-.2 1.2-.3 1.8-.2.3 0 .6 0 .8.2.1 0 .2.1.3.1 1.1.3 1.2 1.8.7 2.6-.3.5-.9 1-1.6 1.4-.5.4-1.1.6-1.8.7 0 0-.1 0-.1.1-1.5.6-3.3.9-5 .8-1 0-2.3 0-3.3-.4-1 .3-2.3.1-3.4-.1-.7-.1-1.4-.1-2.1-.3-.5.1-1.1 0-1.6-.1s-1.3-.1-1.7-.4L71 86c-.2 0-.3-.1-.5-.1-.4-.2-.2-.6.2-.6z" fill="#d6c4c4" stroke-width="none" opacity="1"></path><path id="SvgjsPath12461" d="M87.7 81.6c1.9-.1 3.4 1.5 3.6 2.8.2-1.2-.2-2.4-2-2.8-.2 0-.2-.2 0-.3 2.5-.3 3.3 2.6 2 3.8h-.2c-.1 0-.2 0-.2-.1-.2-.7-.4-1.4-1.1-2-.6-.6-1.5-.8-2.3-1.2 0-.1 0-.2.2-.2zm-5.9 1.6c2.8-.8 6.7.4 7.8 2.5 0 .1-.1.2-.1.1-.8-.8-1.7-1.5-2.9-1.9-1.6-.5-3.1-.4-4.7-.4-.3-.1-.3-.2-.1-.3zm-4.5 1.1c1.4.6 2.8 1.2 4.4 1.5 1.5.4 3.1.6 4.7.7.1 0 .1.2 0 .2-3.2.1-6.8-.6-9.3-2.1-.2-.1 0-.4.2-.3zm-6 1c1.6.3 3.1.8 4.6 1 1.6.3 3.2.4 4.7.6.1 0 .1.1 0 .1-3.1.2-6.8-.4-9.5-1.5-.1-.1 0-.3.2-.2z" fill="#e5e5e5" stroke-width="none" opacity="1"></path><path id="SvgjsPath12462" d="M82.4 87.4c3.5 0 9.3-.1 10.1-3.5.2-1.1-.3-2.2-1.5-2.8-1.6-.8-3.3-.1-4.8.5-5.1 2-10.3 2.9-15.9 3.5-.2 0-.3.2-.3.3-.1-.1-.3-.1-.4-.2-.2-.1-.4.1-.3.2 1.1 1.2 3.4 1.3 5.1 1.5 2.7.4 5.4.6 8 .5zm-12-1.9c2.3 0 4.6-.3 6.9-.8 1.6.9 3.4 1.6 5.4 2.1h-1.5c-3.4 0-7.6-.1-10.8-1.3zm10.7-1.6c.1 0 .1 0 .2-.1l.1.1c2.2.6 4 1.4 5.8 2.7-1.1.2-2.2.2-3.3.3h-.1c-2.1-.6-4.1-1.3-6.1-2.1 1.1-.3 2.3-.6 3.4-.9zm6.4 2.6c-1.4-1.4-3.5-2.4-5.7-2.8.9-.2 1.8-.5 2.7-.8 1.2.3 2.3.5 3.3 1.1.9.5 1.6 1.1 2.2 1.7-.8.4-1.6.6-2.5.8.1 0 0 0 0 0zm3.5-1.6c-.3-1.3-1.8-2.7-3.4-2.9-.2 0-.3.1-.2.2.7.4 1.4.7 2 1.2.6.6.9 1.2 1.2 1.8-.1.1-.2.1-.2.2-1-1.4-3.1-2.6-5.2-2.8.2-.1.3-.1.5-.2 2-.7 5.4-2.1 6.1.5.1.8-.2 1.5-.8 2z" fill="#c7a2a2" stroke-width="none" opacity="1"></path></g></g></g><g id="svga-group-eyebrows-right-move" transform="matrix(1,0,0,1,0,0)"><g id="svga-group-eyebrows-right-rotate" transform="matrix(1,0,0,1,0,0)"><g id="svga-group-eyebrows-right" transform="matrix(1,0,0,1,0,0)"><path id="SvgjsPath12463" d="M129.3 85.3c-.1 0-.3 0-.4.1-.2-.1-.6-.1-.9 0-.1 0-.3 0-.4-.1-.5-.1-.9-.1-1.4-.1h-.5c-.5-.2-1-.3-1.5-.3-.8-.1-1.6-.2-2.4-.2-.3-.1-.5-.1-.8-.2-.5-.1-.9-.3-1.4-.4-.4-.1-.8-.1-1.3-.2-1.1-.4-2.2-.8-3.4-1.2h-.2c-.8-.4-1.7-.8-2.7-1h-.1c-.6-.2-1.2-.3-1.8-.2-.3 0-.6 0-.8.2-.1 0-.2.1-.3.1-1.1.3-1.2 1.8-.7 2.6.3.5.9 1 1.6 1.4.5.4 1.1.6 1.8.7 0 0 .1 0 .1.1 1.5.6 3.3.9 5 .8 1 0 2.3 0 3.3-.4 1 .3 2.3.1 3.4-.1.7-.1 1.4-.1 2.1-.3.5.1 1.1 0 1.6-.1s1.3-.1 1.7-.4c.1 0 .1-.1.2-.1.2 0 .4-.1.5-.1.3-.2.1-.6-.3-.6z" fill="#d6c4c4" stroke-width="none" opacity="1"></path><path id="SvgjsPath12464" d="M112.3 81.6c-1.9-.1-3.4 1.5-3.6 2.8-.2-1.2.2-2.4 2-2.8.2 0 .2-.2 0-.3-2.5-.3-3.3 2.6-2 3.8h.2c.1 0 .2 0 .2-.1.2-.7.4-1.4 1.1-2 .6-.6 1.5-.8 2.3-1.2 0-.1 0-.2-.2-.2zm5.9 1.6c-2.8-.8-6.7.4-7.8 2.5 0 .1.1.2.1.1.8-.8 1.7-1.5 2.9-1.9 1.6-.5 3.1-.4 4.7-.4.3-.1.3-.2.1-.3zm4.5 1.1c-1.4.6-2.8 1.2-4.4 1.5-1.5.4-3.1.6-4.7.7-.1 0-.1.2 0 .2 3.2.1 6.8-.6 9.3-2.1.2-.1 0-.4-.2-.3zm6 1c-1.6.3-3.1.8-4.6 1-1.6.3-3.2.4-4.7.6-.1 0-.1.1 0 .1 3.1.2 6.8-.4 9.5-1.5.1-.1 0-.3-.2-.2z" fill="#e5e5e5" stroke-width="none" opacity="1"></path><path id="SvgjsPath12465" d="M125.5 87c1.7-.2 4-.3 5.1-1.5.1-.1-.1-.3-.3-.2-.1.1-.2.1-.4.2 0-.1-.1-.3-.3-.3-5.7-.5-10.8-1.5-15.9-3.5-1.4-.6-3.2-1.3-4.8-.5-1.2.6-1.8 1.8-1.5 2.8.8 3.4 6.6 3.5 10.1 3.5 2.7 0 5.4-.2 8-.5zm-6.7-.2h-1.5c1.9-.4 3.8-1.2 5.4-2.1 2.3.4 4.6.7 6.9.8-3.2 1.2-7.4 1.3-10.8 1.3zm3.5-2.1c-2 .8-4 1.5-6.1 2.1h-.1c-1.1 0-2.2-.1-3.3-.3 1.7-1.2 3.5-2 5.8-2.7 0 0 .1 0 .1-.1.1 0 .1 0 .2.1 1.1.4 2.3.7 3.4.9zm-9.9 1.8c-.8-.2-1.7-.4-2.4-.8.7-.6 1.3-1.2 2.2-1.7 1-.5 2.2-.8 3.3-1.1.9.3 1.8.6 2.7.8-2.2.4-4.4 1.5-5.8 2.8.1 0 0 0 0 0zm-4.1-3.5c.7-2.6 4.1-1.2 6.1-.5.2.1.3.1.5.2-2.1.2-4.3 1.4-5.2 2.8-.1-.1-.2-.1-.2-.2.3-.7.6-1.3 1.2-1.8s1.3-.8 2-1.2c.2-.1 0-.2-.2-.2-1.6.2-3.1 1.6-3.4 2.9-.7-.6-1-1.3-.8-2z" fill="#c7a2a2" stroke-width="none" opacity="1"></path></g></g></g><g id="svga-group-nose-single-move" transform="matrix(1,0,0,1,0,0)"><g id="svga-group-nose-single" transform="matrix(1,0,0,1,0,0)"><path id="SvgjsPath12438" d="M95.33 118.65c-.61.2-1.14.02-1.61-.54-1.06-.14-1.39-.64-.99-1.51.12-.67.3-1.35.45-2.01l.48-2.01c.05-.22.11-.45.16-.67.04-.84.54-1.34 1.51-1.5.08.23.45.21.45-.06-.01-.47-.26-.79-.62-.9.88-2.62 1.16-5.55 1.6-8.26.44-2.71.88-5.47.99-8.22 0-.09-.14-.11-.16-.02-.62 2.89-.98 5.85-1.47 8.77-.42 2.54-1.14 5.13-1.31 7.7-.14.01-.29.05-.44.12-1.22.6-1.31 3.11-1.57 4.22-.29 1.22-1.3 3.54-.46 4.76.7 1.01 2.1.81 3.08.46.21-.08.12-.37-.09-.33z" fill="#843e04" stroke-width="none" opacity="1" transform="translate(0 2)" stroke="none"></path><path id="SvgjsPath12439" d="M103.43 117.15c-.32.2-.52.43-.8.66-1.15.95-2.17 1.37-3.66.71-1.64-.73-3.56-2.4-5.3-.98-.14.12.01.33.17.29 2.72-.62 4.01 1.73 6.51 1.84 2.13.09 2.98-2.22 5.03-2.35.19-.01.31-.29.11-.39-.76-.37-1.35-.22-2.06.22z" fill="#843e04" stroke-width="none" opacity="1" transform="translate(0 2)" stroke="none"></path><path id="SvgjsPath12440" d="M104.99 108.61c-.16-2.24-.75-4.47-1.11-6.68-.4-2.43-.82-4.85-1.18-7.28-.01-.1-.18-.07-.17.02.46 4.57.74 9.59 2.16 13.98.05.16.31.14.3-.04z" fill="#843e04" stroke-width="none" opacity="1" transform="translate(0 2)" stroke="none"></path><path id="SvgjsPath12441" d="M107.29 113.37c-.4-1.02-.8-3.06-1.71-3.79-.56-.45-1.23-.37-1.43.33-.04.14.14.2.22.09.68-.98 1.52 1.48 1.62 1.76.26.69.53 1.38.79 2.07.47 1.22 1.94 3.9-.33 4.44-.16.04-.21.3-.05.37.76.35 1.43-.02 1.83-.76.73-1.37-.44-3.25-.94-4.51z" fill="#843e04" stroke-width="none" opacity="1" transform="translate(0 2)" stroke="none"></path><path id="SvgjsPath12442" d="M102.18 109.61c-.31-2.29-.62-4.59-.92-6.88-.27-2.1-.08-4.46-.94-6.42-.15-.34-.62-.19-.73.09-.58 1.58-.32 3.3-.27 4.95.05 1.73.06 3.45.22 5.17.15 1.6.33 3.18.57 4.77.21 1.38 1.29 4.02.05 4.96-.38.29-.45 1.05.15 1.15 4.19.72 2.14-5.81 1.87-7.79z" fill="#ba7b47" stroke-width="none" opacity="1" transform="translate(0 2)" stroke="none"></path></g></g><g id="svga-group-hair-front" transform="matrix(1,0,0,1,0,0)"><path id="SvgjsPath12501" d="M105.8 52.5s-.9 15.7-17.9 18.5c-12.8 2.1-27.8 6.8-25.7 20.6 0 0-2.7-.5-4.3-4.3S53.1 66.8 64 54.1s24.8-17.9 42.3-13.6c0 0 15.7 0 26.6 15s11.2 33.6 4.8 40c0 0 3.4-12.5-11.2-18.8C113 71 104 63.6 105.8 52.5z" fill="#d6c4c4" stroke-width="none" opacity="1" stroke="none"></path><path id="SvgjsPath12502" d="M107.2 44.8s-.9 14.6 7.3 21S133.4 76 136.6 79s3.4 7.1 3.4 7.1 1.6-4.8-2-8.9-18.7-9.2-23.5-14.8c-4.8-5.4-5.9-11.7-7.3-17.6zm2.1.8s3.7 9.1 8.7 13.9 13.3 8.7 16.2 10.5 5.3 5.5 5.3 5.5-.5-2.8-5.9-8-12.1-7.7-17.6-13.2-6.7-8.7-6.7-8.7zm-.5-3.8s10.5 2 18 9.2c7.5 7.3 10.5 14.9 11.9 19.2 0 0-6.8-11.6-13.9-18.3-7.1-6.7-16-10.1-16-10.1zM60.7 87.7s-.9-8 5.7-13c6.6-5 19-3.9 26.2-8.7 7.1-4.8 10.7-11.9 12.1-18.5 0 0-4.8 14.4-27.4 20.5S60.7 87.7 60.7 87.7zM58.1 79s.7-9.6 10.9-13.3c10.1-3.7 21-6.9 27.2-11.8s7.7-10 7.7-10-7 9.1-25 14.8S59.7 69.6 58.1 79zM63 60.5s5.3-11.6 17.6-16 21-2.5 21-2.5-24.7-.2-38.6 18.5z" fill="#e5e5e5" stroke-width="none" opacity="1" stroke="none"></path></g><g id="svga-group-glasses-single-move" transform="matrix(1,0,0,1,0,0)"><g id="svga-group-glasses-single" transform="matrix(1,0,0,1,0,0)"></g></g></g></g></g><rect id="svga-credit-rect" width="200" height="15" x="0" y="185" fill="#ecf0f1" opacity="0.5" style="display: none;"></rect><text id="svga-credit-text" font-family="Avenir Next, Roboto, Helvetica, Arial, sans-serif" font-size="10px" text-anchor="start" font-weight="400" size="10px" anchor="start" weight="400" fill="#333333" x="33.43830108642578" y="182.5404257774353" style="display: none;"><tspan id="SvgjsTspan11844" dy="13" x="33.43830108642578">Created on AvatarMaker.com</tspan></text></g></svg>