<svg xmlns="http://www.w3.org/2000/svg" version="1.1" width="600px" height="600px" viewBox="0 0 200 200" style="overflow:hidden!important;"><defs id="SvgjsDefs16347"></defs><g id="svga-group-wrapper"><g id="svga-group-backs-single"><path id="SvgjsPath16821" d="M0 0h200v200H0V0z" fill="#e5fcc2" stroke-width="none" opacity="1"></path><path id="SvgjsPath16822" d="M88.8 158.9s-21.3-3-23.6-17.1c-1.5-9.3 10.5-9.3 14.8-5.5 0 0 3.3-8.7 9.9-7.2 8.4 1.9 9.2 12.7-1.1 29.8zM38.7 51s14.9-16.3 6.8-30.1c-5.3-9.2-14.9-1.5-15.7 4.6 0 0-8.8-5.6-13 0-5.4 7 1.6 17 21.9 25.5zM168 165s-2.6-14.4 1.6-22.7 14.8-4 13.3 4.9c0 0 8.2-2 10.6 4.5 2.3 6.4-10 12.7-25.5 13.3zm6.6-139.5s5.2-1.9 5.9-4.8c.8-3-3-3.5-4.5-1.6 0 0-1.1-2.8-3.1-2.2-1.9.5-2.2 2.6 1.7 8.6z" fill="#b8dd7e" stroke-width="none" opacity="1"></path><path id="SvgjsPath16823" d="M125 33.1s-13-1.2-19.2-6.8.1-13.7 7.4-10.3c0 0 .2-7.6 6.3-8 6.2-.5 8.7 11.5 5.5 25.1zm15.9 84.9s3.6-4.2 2.8-7.1c-.8-3-4.4-1.6-4.7.8 0 0-2.4-1.9-3.8-.4s-.6 3.4 5.7 6.7zm12.2 66.9s7.1-.7 9-4.2-2.7-5.4-5.2-3.4c0 0-.5-3.9-3.2-3.8s-3.6 2.7-.6 11.4zm-122.9 5.7s23.3-3.5 29-15.3-9.8-17.2-17.5-10.6c0 0-2.3-12.8-11-11.9s-11.7 9.5-.5 37.8zm3.5-106.7s3.3-12.8-1.5-18.3-11 1.3-9.3 6.7c0 0-7.1-1.6-8.5 3-1.4 4.8 2.3 8.2 19.3 8.6z" fill="#ceed9f" stroke-width="none" opacity="1"></path><path id="SvgjsPath16824" d="M149.4 76.1s-24.7-19.3-16.5-40.8c5.4-14.2 20.6-5.7 23.2 2.7 0 0 11-10 18.2-3.2 9.1 8.6 1.6 24.4-24.9 41.3zm7 29.6s-4.5-12.3-2-20.2 12.4-5.8 12.4 2.3c0 0 6.9-3 10 2.3 3 5.4-6.9 12.7-20.4 15.6zM53.9 143.9s-13-1.2-19.2-6.8.1-13.7 7.4-10.3c0 0 .2-7.6 6.3-8s8.7 11.6 5.5 25.1zm89.6 23.3s-4.6-9.3-3.3-15.7c1.2-6.5 9.3-5.6 10 .8 0 0 5.2-3 8 1s-4.3 10.5-14.7 13.9zM65.3 46s5.8-6.7 4.5-11.4-7-2.5-7.5 1.2c0 0-3.8-3.1-6-.7-2.2 2.4-1 5.6 9 10.9zm-40.7 81.2s4.7-5.4 3.7-9.3-5.7-2-6.1 1c0 0-3.1-2.5-4.9-.6s-.8 4.6 7.3 8.9zm53 60.3s5.2-1.9 5.9-4.8-3-3.5-4.5-1.6c0 0-1.1-2.8-3.1-2.2-1.8.6-2.1 2.7 1.7 8.6zm47.7-12.7s4.7-5.4 3.7-9.3c-1-3.9-5.7-2-6.1 1 0 0-3.1-2.5-4.9-.6-1.9 2-.9 4.6 7.3 8.9zm-22.6-132s4.7-5.4 3.7-9.3-5.7-2-6.1 1c0 0-3.1-2.5-4.9-.6-1.9 2-.9 4.6 7.3 8.9zM77.3 94.4s8.8-4.2 9.6-9.5-5.9-5.6-8.2-2.1c0 0-2.5-4.8-5.8-3.3-3.2 1.4-3.4 5.1 4.4 14.9z" fill="#d9f4b0" stroke-width="none" opacity="1"></path></g><g id="svga-group-humanwrap-move" transform="matrix(1,0,0,1,0,0)"><g id="svga-group-humanwrap" transform="matrix(1,0,0,1,0,0)"><g id="svga-group-hair-back-move" transform="matrix(1,0,0,1,0,0)"><g id="svga-group-hair-back" transform="matrix(1,0,0,1,0,0)"><path id="SvgjsPath17047" d="M69.5 164.1c1.6-4.4.9-6.3.9-6.3s4.7-8.4 1.1-16.9c-.2-.4-.4-.7-.6-1.1 0 0 4.3-.5 4.8-10.6s30.1-28.7 30.1-28.7L125 130s1.1 7.1 3.7 12.1c0 0-5.8 4.6 1 15.7 8.3 3.2 15.1 1.7 16.2-1.1.6-1.5.5-5.5-1.3-6.8-.3-.2-1-.6-1-1.1 0-.5.4-.6 1-1.2.9-1.1 1.8-3.4 1.9-3.4 0 0 2-3.1 1.2-7.5-.5-2.6-1.4-2.8-1.4-4.6.1-2.2 1.4-3.5 2.2-4.9 2.2-3.7-.4-6.9-1.1-13.2-.9-8.8 3.2-11.1 2.4-19.4-.5-4.7-1.4-9.1-1.4-9.1-.4-1.7-.5-1.8-.7-2.9-.9-4.8-.6-8.6-.5-9.4.3-5.2-4.4-16-9.9-22-9.2-10.1-23-9.8-50.6-9-14 .4-19.1 2.1-23.2 5.3-5.8 4.4-10.2 11.9-11.6 19.3-1.5 7.8 1.2 11.7-1.8 19.5-.5 1.4-1.8 4.2-2.5 8.4-.4 2.1-.8 4.6-.6 7.6.6 6.5 3.9 7.5 4.4 13.1.4 4.6-1.9 4.3-2.1 10-.3 8 3.8 15.8 3.8 15.8-.1 0-.2.1-.3.2-.3.2-.5.6-.6.6 0 0-.9 2.9-.7 5.8 0 0 .1 1.7 2.9 8.2" fill="#cac1b2" stroke-width="none" opacity="1" stroke="none"></path><path id="SvgjsPath17048" d="M67.4 137.8c3.4-3 3.9-6.2 3.9-10.6s-8.9-39.6-8.9-46.5S58 65.6 58 65.6L56.6 64s-6 14.7-4.5 22.6c0 0-5.9 9.1-1 18.2s8.3 15 9.6 18.2 3.2 5.1 3.4 9.3c.3 4.3-1.7 7.3-5.2 9.4.1-.1 3.5.4 8.5-3.9zm79.9-23.9s-.2 15.3-5.4 21c0 0 1.4-.4 4.4-2.9-.1 0 5.4-7 1-18.1zm-7.9 30.4s-7.7-5.1-4.3-12.7c1.9-4.1 7.2-15.1 9.4-19.2s2.9-22.1 1.6-26.2c-1.2-4.1-3.1-10.8-3.1-12.7l-1.6-1.1-9.9 2.9-9.8 15.7-1.2 32 4.4 6.8c.1 1.1.3 2.4.8 3.8 1.3 4.1 1.9 6.3 4.2 8.1 3 2 6.3 2.3 9.5 2.6zm-84.5-5.2c-.4-3.1 2.4-8.9 2.4-13.9s-5.8-9.8-5.8-9.8-2.1.7-2.1 10 3.8 15.8 3.8 15.8c2.5 2.7 3.3 2.2 3.3 2.2s-1.1-1.2-1.6-4.3z" fill="#bbab92" stroke-width="none" opacity="1" stroke="none"></path></g></g><g id="svga-group-humanbody-back"><path id="SvgjsPath16651" d="m168.5 219.5-1.7-21.5s.7-9-8.8-15.3-23.4-10.1-29.5-14.2c-6.1-4.1-9.2-4.5-9-16.9s.9-40.3.9-40.3H79.6s.7 27.9.9 40.3c.2 12.4-2.9 12.8-9 16.9-6.1 4.1-20 7.9-29.5 14.2S33.2 198 33.2 198l-1.6 21.5h136.9z" fill="#cb8d60" stroke-width="none" opacity="1" stroke="none"></path></g><g id="svga-group-chinshadow-single"><path id="SvgjsPath16896" d="M82.6 154.1c5 1.3 7.5 8.3 17.4 8.3 10 0 12.5-7 17.4-8.3.74-.15 1.43-.3 2.1-.46-.01-.64-.01-1.32 0-2.04.2-12.4.9-40.3.9-40.3H79.6s.7 27.9.9 40.3c.01.69.01 1.35 0 1.97.67.16 1.36.33 2.1.53z" fill="#ac642f" stroke-width="none" opacity="0.65" stroke="none"></path></g><g id="svga-group-humanbody-front"><path id="SvgjsPath16652" d="M73.8 175.9c5.1 2.9 11.8 5.2 17.6 5.7.4 0 .4-.6.1-.7-2.8-1.1-5.9-1.7-8.8-2.6-2.9-.9-5.8-2-8.8-2.7-.1-.1-.3.2-.1.3zm35.2 6.2c5.3-.6 11.3-3 15.9-5.8.3-.2.1-.6-.2-.5-2.6.9-5.2 2-7.8 2.9-2.6.9-5.4 1.5-8 2.5-.5.1-.5.9.1.9z" fill="#ac642f" stroke-width="none" opacity="1" stroke="none"></path><path id="SvgjsPath16653" d="m168.4 219.4-2.1-21.4c0-2.2-.5-4.5-1.5-6.6-.9-2.1-2.3-3.9-3.9-5.5s-3.5-2.8-5.5-4c-2-1.2-4.1-2.2-6.2-3.1-4.2-1.9-8.6-3.6-12.9-5.4-2.2-.9-4.3-1.9-6.4-3-1.1-.6-2.1-1.2-3-1.9-1-.6-2-1.2-3-1.9s-2-1.5-2.8-2.6c-.8-1-1.3-2.2-1.7-3.4-.7-2.4-.8-4.8-.8-7.2 0-4.7.2-9.4.3-14.1.2-9.4.6-18.7.9-28l.6.6-20.4-.2-20.4-.1.3-.3.7 28c.1 4.7.3 9.3.4 14 0 2.4-.1 4.7-.8 7.1-.3 1.2-.9 2.3-1.6 3.3-.8 1-1.7 1.8-2.7 2.5s-2 1.3-2.9 2c-.9.6-1.9 1.3-3 1.9-2.1 1.2-4.2 2.1-6.4 3.1-4.3 1.9-8.6 3.6-12.8 5.6-2.1 1-4.2 2.1-6.1 3.2-2 1.2-3.8 2.4-5.4 4-1.6 1.6-2.9 3.4-3.8 5.4-.4 1-.8 2.1-1 3.1-.2 1.1-.4 2.2-.3 3.2v.2l-1.5 21.5-1-1.1 34 .1c11.3 0 22.7.1 34.1.2l34.2.3 34.4.5zm.2.2-34 .4-34.2.3c-11.4.1-22.9.2-34.4.2l-34.4.1h-1.1l.1-1.1 1.7-21.5v.1c-.1-5.1 2.2-9.8 5.7-13.3 1.7-1.7 3.8-3.1 5.8-4.3 2-1.2 4.2-2.2 6.3-3.2 4.3-2 8.7-3.7 13-5.4 2.1-.9 4.3-1.8 6.3-2.9 1-.5 1.9-1.1 3-1.8 1-.6 2-1.2 2.9-1.9.9-.6 1.8-1.4 2.4-2.2.7-.9 1.2-1.9 1.5-2.9.6-2.1.8-4.5.8-6.8 0-4.6-.1-9.3-.2-14l-.6-28v-.3h.3l20.4-.1 20.4-.2h.6v.6c-.1 9.3-.2 18.7-.4 28-.1 4.7-.2 9.4-.2 14 .1 2.3.2 4.6.8 6.7.3 1.1.8 2 1.4 2.9.6.8 1.4 1.6 2.4 2.2.9.6 1.9 1.3 2.9 1.9 1 .7 1.9 1.3 2.9 1.8 2 1.1 4.1 2.1 6.3 3 4.3 1.8 8.6 3.6 12.9 5.6 2.1 1 4.2 2.1 6.2 3.3 2 1.2 4 2.6 5.7 4.3 3.4 3.4 5.6 8.1 5.4 13v-.1l1.4 21.6zm-112.8-.4 1.9-13.8.1 13.8h-2zm88.6 0-1.9-13.8-.1 13.8h2z" fill="#9d521b" stroke-width="none" opacity="1" stroke="none"></path></g><g id="svga-group-clothes-single"><path id="SvgjsPath17021" d="M27.5 220c-1.4-8.2 1.3-23.2 1.8-26s3.9-6.8 3.9-6.8 1.2-2.6 5.1-6c4-3.5 15.4-6.4 15.9-7.6.5-1.2 2.7-2.3 2.7-2.3-1-4.2 2.1-7.8 3.6-11.4 1.5-3.6 4.9-5.6 4.9-5.6 3.7-6.2 12.5-7 12.5-7s.6 5.3.6 7.8-.1 6.1-.8 7.7-.8 2.3-.8 2.3.2 3.2 5.8 7.4 7.2 6.9 12.5 9.2c3.7 1.7 6.7 5.2 6.7 5.2s0-2.6 3.1-5.2c4.5-3.8 6.9-5 12.5-9.2s5.8-7.4 5.8-7.4-.1-1-.5-2.7c-.4-2-.3-4.4-.3-6.9s.8-8.4.8-8.4 7.7 1 11.4 7.2c0 0 3.3 2.1 4.9 5.6s4.6 7.2 3.6 11.4c0 0 2.2 1.2 2.7 2.3.5 1.2 11.9 4.1 15.9 7.6s5.1 6 5.1 6 3.3 4 3.9 6.8c.5 2.8 3.2 17.8 1.8 26" fill="#335529" stroke-width="none" opacity="1"></path><path id="SvgjsPath17022" d="M173.2 211.5c-.1-2.9-.2-5.7-.6-8.5s-.7-5.6-1.1-8.5c-.1-.7-.3-1.5-.6-2.2-.3-.7-.6-1.4-1-2-.7-1.2-1.5-2.4-2.4-3.5-.6-1.2-1.3-2.1-2.1-3.1s-1.7-1.9-2.6-2.7c-.9-.9-2-1.6-3.1-2.2-1.1-.6-2.2-1.1-3.4-1.6-2.3-1-4.6-1.9-6.8-2.8-.6-.2-1.1-.4-1.7-.7-.3-.1-.5-.2-.8-.4-.1-.1-.2-.1-.3-.2 0 0-.1 0-.1-.1l-.1-.1c-.1-.1-.1-.2-.2-.3-.1-.2-.2-.3-.4-.5-.3-.3-.5-.5-.8-.7-.3-.3-.7-.5-1-.7.2-1.6 0-3.3-.6-4.7-.6-1.7-1.4-3.1-2.2-4.6-.4-.7-.7-1.4-1.1-2.2-.4-.8-.8-1.6-1.4-2.3-1-1.4-2.2-2.5-3.6-3.5-1.3-2.1-3.1-3.8-5.1-5-1.1-.6-2.2-1.1-3.3-1.6-1.2-.4-2.3-.7-3.6-.9-.5-.1-2.9-.2-2.9-.2-1.5 11 1.8 18.5 1.9 19.2 0 .1-.1.4-.2.6v.1l-.3.6v.1c0 .1 0 .1-.1.2-.3.5-.6.9-.9 1.4-.7 1-1.6 1.9-2.6 2.7-.1.1-.3.2-.4.3-.2.2-.5.4-.7.6-.7.5-1.5 1.1-2.2 1.6-.9.7-1.8 1.4-2.8 2.2 0 0-.1 0-.1.1-2.1 1.5-4.3 3-6.3 4.7-1.7 1.4-3.7 3.1-4.3 5.6-1.8-1.8-3.8-3.3-6.1-4.4-2.6-1.1-4.9-2.6-7-4.5-1.1-.9-2.1-1.9-3.2-2.8-1.1-.9-2.2-1.8-3.3-2.6-1.1-.9-2.1-1.8-3-2.9-.3-.4-.6-.8-.8-1.2-.2-.4-.2-.8-.3-1.2-.1-.4-.2-.9-.2-1.2v-.1l-.1-.2c-.1-.1-.1-.3-.2-.5.1-.4.3-.8.5-1.1 2.3-1.9 2.5-9.2 2.4-10.8-.1-1.5-.2-5.8-.2-5.8-1.3.1-4.7.6-5.9.9-1.2.4-2.4.8-3.5 1.4-2.2 1.1-4.3 2.7-5.7 4.9-1.4.9-2.7 2.1-3.7 3.4-.5.7-1 1.4-1.4 2.3-.3.8-.7 1.4-1.1 2.2-.8 1.4-1.6 2.9-2.2 4.6-.5 1.4-.8 3.1-.6 4.7-.4.2-.7.5-1.1.8-.3.2-.5.4-.8.7-.1.1-.2.3-.4.4-.1.1-.1.2-.2.3v.1l-.1.1c-.1.1-.2.1-.3.2-.2.1-.5.2-.8.4-.5.2-1.1.5-1.7.7-2.3.9-4.6 1.7-6.8 2.7-1.1.5-2.3 1-3.4 1.6-1.1.6-2.2 1.4-3.1 2.2-.9.8-1.8 1.7-2.6 2.7-.8.9-1.5 1.9-2.1 3.1-.9 1.1-1.7 2.3-2.4 3.5-.4.6-.7 1.3-1 2-.3.7-.5 1.5-.6 2.2-.5 2.8-.9 5.6-1.2 8.5s-.5 5.7-.6 8.5c0 2.9 0 5.7.6 8.5h.2c-.4-2.8-.3-5.6-.1-8.5.2-2.8.5-5.6.9-8.4.4-2.8.9-5.6 1.4-8.4.1-.7.3-1.3.5-1.9.3-.6.6-1.2 1-1.8.7-1.2 1.5-2.3 2.4-3.4l.1-.1v-.1c.5-.9 1.2-1.9 2-2.8.8-.9 1.6-1.7 2.5-2.5 1.7-1.6 3.9-2.6 6.1-3.5 2.2-.9 4.5-1.8 6.8-2.6.6-.2 1.2-.4 1.7-.7.1 0 .2-.1.2-.1-.4.8-.8 1.6-1.1 2.4-.4 1.3-.7 2.7-.3 4.2.3.8.7 1.3 1.2 1.8s1 1 1.5 1.4c1.1.9 2.2 1.6 3.3 2.3 2.3 1.4 4.7 2.6 7.1 3.7 1.2.5 2.4 1.1 3.7 1.5 1.3.4 2.7.7 4 .9 2.7.4 5.3.5 8 .6 2.7.1 5.3.1 7.9.1 1.3 0 2.6.1 3.9.2l3.9.4c.6.1 1.2.1 1.7.2-2.1 2.1-4.3 5.2-5.4 9.6-1.4 6 .7 7.6 1.7 8 .3.1.7.2 1.1.2 1.4 0 2.9-1 3.8-2.6.7-1.2 1.4-3.5 2-6.1 0 7 .7 12.8.8 13.2.1.5.5.9 1 .9h.1c.6-.1.9-.6.9-1.1 0-.1-1.1-9.2-.6-18.3 1.5 6.3 3.9 15.4 6.7 18.8.3.4 1 .5 1.4.1s.5-1 .1-1.4c-2.9-3.5-5.6-14.9-6.9-20.7.1 0 .1-.1.2-.1 2.2 3.6 3.5 8.3 4.4 11.7.5 1.8.8 3.2 1.2 4.1.7 1.6 2.4 2.6 4.1 2.6.5 0 1.1-.1 1.5-.3 1-.4 4-2.3 1.2-9.2-2-4.9-5.4-8.3-8.4-10.5.3-.1.7-.3 1.1-.4 1.9-.6 3.9-1.3 5.8-1.4.4 0 1.1-.1 1.6-.2l1.5-.3c1-.2 2-.5 3-.8 2-.6 3.9-1.3 5.8-2 3.8-1.5 7.6-3.2 11.2-5.2 1.8-1 3.6-2.3 4.9-4 .6-.9 1.2-1.8 1.5-2.8.2-.6.4-1.2.4-1.8.1.1.2.1.3.2.3.1.6.3.9.4.6.2 1.2.5 1.7.7 2.3.9 4.6 1.7 6.8 2.6 2.2.9 4.4 1.9 6.1 3.5.9.8 1.7 1.6 2.5 2.5.8.9 1.5 1.9 2 2.8v.1l.1.1c.9 1 1.7 2.2 2.4 3.3.4.6.7 1.2.9 1.8.3.6.4 1.2.6 1.9.5 2.8 1 5.6 1.4 8.4.4 2.8.7 5.6.9 8.4.2 2.8.2 5.7-.1 8.5h.2c1.1-2.9 1.2-5.8 1.2-8.6zm-49.2-48c-.1-.3-.1-.7-.2-1-.2-.8-.2-1.4-.3-2.1-.1-1.4-.1-2.9-.1-4.4 0-1.5.1-2.9.3-4.4 0-.2.1-.5.1-.7.7 1 1.2 2.1 1.5 3.2.3 1.4.4 2.8.3 4.2-.1 1.4-.4 2.8-.9 4.1-.2.4-.5.8-.7 1.1zm-46.2-2.9c-.1.7-.2 1.4-.6 2.1-.1.1-.1.3-.2.4-.2-.6-.3-1.2-.4-1.7-.2-1.1-.4-2.2-.4-3.3-.1-1.1 0-2.1.4-3.1.3-.8.7-1.6 1.4-2.4.1 1.2.2 2.4.1 3.6-.1 1.4-.1 2.9-.3 4.4zm19.7 48.6c-.7 1.2-1.8 1.7-2.4 1.5-.8-.3-1.3-2.2-.5-5.7 1.2-4.8 4-8 6.1-9.8h.3c-.8 4.8-2.3 12-3.5 14zm4.6-17.4c-.2.1-1.5.8-3.1 2.3-.8-.1-1.7-.3-2.5-.4-2.6-.4-5.2-1-7.9-1.1-5.3-.4-10.6-.4-15.6-1.2-1.3-.2-2.5-.5-3.7-.8-1.2-.4-2.4-.9-3.6-1.4-2.4-1-4.8-2.1-7.1-3.3-1.2-.6-2.2-1.3-3.3-2-1-.7-2.1-1.5-2.6-2.5-.4-1.1-.3-2.4 0-3.6.2-1 .5-1.9 1-2.9 0 0 .1-.1.2-.1.2-.1.3-.2.5-.3.2-.1.3-.2.6-.5l.2-.3s0-.1.1-.1c0-.1.1-.2.2-.3.2-.2.4-.4.6-.5s.5-.3.7-.5v1.3c.1.8.4 1.6.7 2.4.7 1.5 1.7 2.9 2.7 4.2 1.1 1.2 2.3 2.4 3.6 3.4.7.5 1.3 1 2 1.5.7.4 1.4.9 2.1 1.3-1.2-1.2-2.4-2.3-3.5-3.4-1.2-1.1-2.3-2.3-3.3-3.5-1-1.2-2-2.5-2.8-3.9-.4-.7-.7-1.4-1-2.2-.1-.4-.2-.9-.3-1.3.2-.1.3-.2.4-.3.3-.2.5-.6.4-1-.3-1.4-.2-2.9.3-4.4.5-1.5 1.3-2.9 2.1-4.4.4-.7.8-1.5 1.1-2.3.3-.7.7-1.4 1.1-2 .4-.6.9-1.1 1.4-1.7-.7 1.5-1 3.1-1 4.8.1 2.6 1.3 5 2.6 7.1 1.3 2.2 2.7 4.3 4.4 6.2 1.7 1.9 3.8 3.5 6 4.8 2.2 1.3 4.6 2.2 6.9 3.1 2.4.9 4.8 1.7 7.2 2.4 2.4.8 4.8 1.5 7 2.7 2 1 3.8 2.3 5.4 3.9 0 .5-.1.6-.2.8zm13.5 13.3c1.4 3.4 1.3 6-.2 6.6-1.1.4-2.6-.2-3.1-1.2-.3-.8-.7-2.2-1.2-3.9-.9-3.4-2.1-8-4.3-11.8 2.9 1.8 6.7 5.2 8.8 10.3zm27.5-26.3c-1.3 1.4-3 2.4-4.8 3.3-3.6 1.8-7.4 3.3-11.2 4.8l-5.7 2.3c-.9.4-1.9.7-2.8 1.1-.5.2-.9.3-1.4.4-.5.1-.9.2-1.4.3-2.1.4-4 1.1-5.9 1.8l-1.5.6c-2.3-1.6-4.3-2.3-4.8-2.3-.2 0-.3.1-.5.1h-.2c-.2 0-.4.1-.6.2-1.5-1.6-3.3-3.1-5.2-4.2-2.2-1.3-4.6-2.1-7-3-4.7-1.7-9.5-3.2-13.8-5.7-2.1-1.2-4.1-2.7-5.8-4.5-1.7-1.8-3.1-3.9-4.4-6-.7-1.1-1.3-2.1-1.8-3.2s-.8-2.3-1-3.5c-.2-1.7.1-3.5.8-5.1.5-.4 1-.9 1.5-1.2h.1l.2-.2c1.2-2 3-3.6 5.1-4.7 1.1-.6 2.2-1 3.3-1.4 1-.3 2-.6 3-.7.2 1.3.3 2.6.4 4v.6c-1 .4-1.9 1.2-2.5 2.1-.7 1.1-1.1 2.4-1.1 3.7-.1 1.3.1 2.5.3 3.7.3 1.2.7 2.4 1.3 3.5.1.4.2.8.4 1.2.2.4.5.9.7 1.3.3.4.6.8 1 1.1l.9.6c.8.9 1.6 1.7 2.4 2.4 1.1.9 2.2 1.7 3.3 2.6 1.1.9 2.1 1.8 3.2 2.8 1.1.9 2.2 1.9 3.3 2.7 1.2.8 2.5 1.5 3.7 2.1 2.4 1.2 4.6 3.1 6.4 5.1.1.1.2.2.4.2.3 0 .6-.2.6-.5.1-1.1.7-2.3 1.4-3.2.7-1 1.8-1.7 2.8-2.5 2-1.6 4.2-3 6.4-4.5 1.1-.7 2.2-1.5 3.2-2.3.3-.2.7-.5 1-.7l1-.6c.8-.5 1.6-1 2.3-1.7.7-.6 1.4-1.3 2-2.1.3-.4.6-.8.8-1.3.1-.2.2-.5.3-.8 0-.1.1-.3.1-.4l.6-.6c.3-.3.6-.6.8-1 .5-.7.9-1.4 1.2-2.2.6-1.5.8-3.1.7-4.7 0-1.6-.3-3.1-.9-4.6-.5-1.2-1.3-2.3-2.3-3.1l.3-2.4 2.1.6c1 .4 2 .9 3 1.4 1.9 1.1 3.5 2.6 4.6 4.4l.3.3c.2.1.4.3.6.5 0 1.6-.2 3.1-.7 4.6-.6 1.9-1.6 3.7-2.8 5.2-2.5 3.1-5.7 5.6-9.2 7.6-.9.5-1.8.9-2.7 1.3-.9.4-1.9.9-2.8 1.4-1.8 1-3.6 2-5.2 3.2s-3.3 2.4-4.8 3.8c-.8.7-1.5 1.4-2.1 2.2-.6.8-1.3 1.6-1.5 2.6.3-1 1.1-1.7 1.7-2.5.7-.7 1.5-1.4 2.3-2 1.6-1.3 3.2-2.4 4.9-3.5 1.7-1.1 3.4-2.1 5.2-3 .9-.5 1.8-.9 2.7-1.3.9-.4 1.9-.8 2.8-1.3 1.8-1 3.5-2.2 5.1-3.5 1.6-1.3 3-2.8 4.3-4.4 2.2-2.9 3.4-6.6 3.1-10.2.9.7 1.8 1.6 2.5 2.6.4.6.9 1.3 1.1 1.9.3.8.7 1.6 1.1 2.3.8 1.5 1.6 2.9 2.1 4.3s.7 2.9.4 4.3c-.1.3 0 .6.2.9-1.1.9-2.2 1.7-3.4 2.4-1.4.9-3 1.7-4.6 2.3-1.6.6-3.2 1.1-4.9 1.6l-4.9 1.4c-1.7.5-3.3 1-4.9 1.6-.8.3-1.6.7-2.4 1.2-.4.2-.8.5-1.1.8-.3.3-.6.6-.9.8-2.7 2.1-5.8 3.6-8.4 5.9.3-.3.7-.5 1.1-.7l1.1-.6 2.3-1.2c1.5-.9 3-1.7 4.4-2.7.4-.2.7-.5 1.1-.8.3-.3.6-.5 1-.7.7-.4 1.5-.7 2.3-1 1.6-.6 3.2-1.1 4.9-1.6l4.9-1.5c1.6-.5 3.3-1 4.9-1.8 2.9-1.3 5.5-3.1 7.7-5.3l.2.2c.5.2 1 .6 1.4.9.2.2.4.3.6.5l.2.2.1.1.2.3c.2.3.4.4.5.5-.3 1.2-1.2 2.7-2.3 3.8zM42 203.8c-.7-2.5-1.7-5-2.9-7.3s-2.5-4.6-4.1-6.6c.9 2.5 1.8 4.9 2.6 7.3.9 2.4 1.7 4.8 2.4 7.2.3 1.2.6 2.4.9 3.7l.8 3.7c.5 2.5 1.1 5 1.7 7.5.2-2.6.1-5.2-.2-7.8-.1-2.6-.5-5.1-1.2-7.7zm117.5-7.6c-.7 1.1-1.2 2.3-1.7 3.5-.5 1.2-.8 2.4-1.1 3.7-.5 2.5-.7 5-.8 7.5 0 2.5.1 5 .5 7.5.4-2.5.7-4.9 1-7.4.4-2.4.7-4.9 1.2-7.2.5-2.4 1.1-4.6 2.2-6.8 1-2.1 2.4-4.2 4.1-6-2.2 1.1-4 3.1-5.4 5.2z" fill="#18360f" stroke-width="none" opacity="1"></path><path id="SvgjsPath17023" d="M107.5 181.3c6.7-4 15.6-7.9 20-14.8 3.2-5 3.7-12.1-1-16.2-.3-.2-.8.1-.5.4 10.5 14.7-10.3 22.7-18.8 30.1-.3.2 0 .6.3.5zm30.2-23.2c-.1-.5-1-.5-1 0-1.4 8.9-6.9 13.3-14.7 17.2-5.8 2.8-11.3 5.4-15.1 10.8-.3.5.4 1.1.8.6 6.5-6.6 15.7-8.5 22.9-14 4.4-3.3 8.5-8.8 7.1-14.6zm-57 16.5c-8.2-5.3-14.7-16.3-5.2-24 .6-.5-.2-1.2-.7-.9-8 3.7-7.1 14-2.6 20.1 6.7 9 18.7 11.6 27.6 17.5.2.1.3-.1.2-.2-5.5-5.8-12.8-8.3-19.3-12.5zm15.8 15.5c-6.5-3.6-14.1-4.6-20.6-8.6-7-4.3-11.7-10.2-13.7-18.2-.1-.4-.7-.3-.6.1.4 7.5 5.4 14.1 11.2 18.5 6.3 4.7 15.6 8.9 23.5 9.4.5 0 .8-.9.2-1.2zm47.1-16.2c-6.3 8.2-15.4 10.1-25 12.1-.4.1-.2.6.2.5 9.3-1.2 20.3-3.6 25.5-12.3.2-.3-.4-.6-.7-.3zm26 24.6c-.5-3.4-.7-8.6-4.2-10.2v-.4c-2.4-6.2-11.4-11.6-18-11.3-.6 0-.7.9-.1 1.1 3.2 1.3 6.4 2.1 9.4 4 2.7 1.8 4.5 4.2 6.7 6.4-8.5 4.9-12.6 16.1-9.5 25.4.1.4.9.4.8-.1-1.2-10.3 2-17.9 9.7-24.3 5.9 7 3.7 19.7 4.8 28.2.1.6 1 .8 1.1.1.9-6.2.2-12.7-.7-18.9zM46.7 177.6c-5.3.9-9.7 5.4-11.9 10.1-.2.5.4.9.7.4 2.9-4.6 6.9-7.1 11.4-9.9.3-.2.1-.6-.2-.6zM33 191.9c-2.4 6.3-3.5 13.7-3.3 20.4 0 .5.8.5.8 0 .8-6.9 1.7-13.5 2.9-20.3.1-.3-.3-.4-.4-.1z" fill="#44643a" stroke-width="none" opacity="1"></path></g><g id="svga-group-head" transform="matrix(1,0,0,1,0,0)"><g id="svga-group-ears-left-move" transform="matrix(1,0,0,1,0,0)"><g id="svga-group-ears-left" transform="matrix(1,0,0,1,0,0)"><path id="SvgjsPath16854" d="M64.2 96.3c-.2-.3-3.1-4-5.5-6.3-2.5-2.3-3.2-2.2-4.4-.8s-2.7 8.5-2.3 11.7 3.3 8.2 4.9 11c1.6 2.8 3.1 6.3 4.8 6 1.8-.3 4.2-4.3 5.3-7.3 1.2-3 .6-10.3-2.8-14.3z" fill="#cb8d60" stroke-width="none" opacity="1" stroke="none"></path><path id="SvgjsPath16855" d="M67.9 104.8c.1.8.2 1.6.2 2.4s0 1.6-.2 2.4l-.3 1.2c-.1.4-.3.7-.4 1-.3.7-.6 1.3-.9 2-.7 1.2-1.4 2.4-2.4 3.4-.5.5-1 1-1.7 1.2-.3.1-.8.1-1.2 0-.4-.2-.7-.4-1-.7-1.2-1.2-1.8-2.6-2.5-4s-1.4-2.7-2.1-4.1c-.7-1.4-1.4-2.8-2-4.2-.3-.7-.6-1.4-.9-2.2-.3-.7-.5-1.5-.6-2.3-.2-1.6 0-3.2.1-4.7.2-1.5.4-3 .8-4.5.2-.7.4-1.5.7-2.2.1-.2.2-.3.3-.5s.2-.4.3-.5c.2-.3.5-.5.8-.7s.7-.3 1.1-.3c.4.1.7.2 1.1.4.6.4 1.1.9 1.7 1.4 2 2.1 3.7 4.5 5.6 6.8 1.8 2.5 2.9 5.6 3.5 8.7zm-9.6-14.6c-1-.8-2.2-1.7-2.9-1.2-.2.1-.4.3-.6.6-.1.1-.2.2-.2.3-.1.1-.1.3-.2.4-.3.6-.5 1.2-.7 1.9-.4 1.3-.8 2.8-1.1 4.2-.3 1.4-.5 3-.4 4.4.1.7.3 1.5.5 2.2l.9 2.1c.6 1.4 1.4 2.7 2.2 4s1.6 2.6 2.3 3.9c.4.7.7 1.3 1.1 1.9.4.6.8 1.2 1.2 1.6s.8.6 1.2.4.9-.5 1.3-1c.8-.9 1.5-2 2.2-3.2l.9-1.8c.1-.3.3-.6.4-.9l.2-.4c0-.2.1-.3.1-.5.3-1.3.3-2.8.3-4.3-.1-1.5-.3-3-.8-4.5s-1.2-2.9-2.1-4c-1.7-2.2-3.7-4.4-5.8-6.1z" fill="#bc7746" stroke-width="none" opacity="1" stroke="none"></path><path id="SvgjsPath16856" d="M54.1 102.4c-.2-2.1-.4-7.4.8-9 2-2.7 5.6 6.1 6.5 8.8 0 .1.1.2.1.2.1.3-.1.7-.4.6-.4-.2-.8-.6-1.2-.8-1.1-.5-1.5.4-1.2 1.7.4 1.7 1.3 2.7 2.1 4 .1.2 0 .4-.2.3-1.5-.9-3.3-4.2-2.9-6.2.3-1.8 1.8-1.7 2.9-.8-.7-1.6-1.4-3.1-2.3-4.5-.6-.9-1.1-1.9-2-2-1.1-.2-.9.3-1.1 1.7-.8 4.6-.3 9.7 2.4 13.7.1.1 0 .2-.1.1-2-2.2-3.1-4.7-3.4-7.8z" fill="#ac642f" stroke-width="none" opacity="1" stroke="none"></path></g></g><g id="svga-group-ears-right-move" transform="matrix(1,0,0,1,0,0)"><g id="svga-group-ears-right" transform="matrix(1,0,0,1,0,0)"><path id="SvgjsPath16857" d="M135.8 96.3c.2-.3 3.1-4 5.5-6.3 2.5-2.3 3.2-2.2 4.4-.8s2.7 8.5 2.3 11.7-3.3 8.2-4.9 11c-1.6 2.8-3.1 6.3-4.8 6-1.8-.3-4.2-4.3-5.3-7.3-1.2-3-.6-10.3 2.8-14.3z" fill="#cb8d60" stroke-width="none" opacity="1" stroke="none"></path><path id="SvgjsPath16858" d="M135.7 96.3c1.8-2.3 3.5-4.7 5.6-6.8.5-.5 1-1 1.7-1.4.3-.2.7-.4 1.1-.4.4-.1.8.1 1.1.3.3.2.6.5.8.7.1.1.2.3.3.5s.2.3.3.5c.3.7.5 1.4.7 2.2.4 1.5.6 3 .8 4.5.1 1.5.3 3.1.1 4.7-.1.8-.3 1.6-.6 2.3-.3.8-.6 1.5-.9 2.2-.6 1.4-1.3 2.8-2 4.2-.7 1.4-1.4 2.7-2.1 4.1-.7 1.4-1.4 2.8-2.5 4-.3.3-.6.6-1 .7s-.9.2-1.2 0c-.7-.2-1.2-.7-1.7-1.2-1-1-1.7-2.2-2.4-3.4-.3-.6-.6-1.3-.9-2-.1-.3-.3-.7-.4-1l-.3-1.2c-.1-.8-.2-1.6-.2-2.4s.1-1.6.2-2.4c.5-3.3 1.6-6.4 3.5-8.7zm.1.1c-.9 1.1-1.6 2.5-2.1 4s-.7 3-.8 4.5 0 3 .3 4.3c0 .2.1.3.1.5l.2.4c.1.3.3.6.4.9l.9 1.8c.6 1.2 1.4 2.3 2.2 3.2.4.4.9.8 1.3 1 .4.2.8 0 1.2-.4s.8-1 1.2-1.6.8-1.3 1.1-1.9c.7-1.3 1.6-2.6 2.3-3.9.8-1.3 1.5-2.6 2.2-4l.9-2.1c.3-.7.5-1.5.5-2.2.1-1.5-.1-3-.4-4.4-.3-1.4-.6-2.9-1.1-4.2-.2-.7-.5-1.3-.7-1.9-.1-.1-.1-.3-.2-.4-.1-.1-.1-.2-.2-.3l-.6-.6c-.7-.6-1.8.4-2.9 1.2-2 1.6-4 3.8-5.8 6.1z" fill="#bc7746" stroke-width="none" opacity="1" stroke="none"></path><path id="SvgjsPath16859" d="M145.9 102.4c.2-2.1.4-7.4-.8-9-2-2.7-5.6 6.1-6.5 8.8 0 .1-.1.2-.1.2-.1.3.1.7.4.6.4-.2.8-.6 1.2-.8 1.1-.5 1.5.4 1.2 1.7-.4 1.7-1.3 2.7-2.1 4-.1.2 0 .4.2.3 1.5-.9 3.3-4.2 2.9-6.2-.3-1.8-1.8-1.7-2.9-.8.7-1.6 1.4-3.1 2.3-4.5.6-.9 1.1-1.9 2-2 1.1-.2.9.3 1.1 1.7.8 4.6.3 9.7-2.4 13.7-.1.1 0 .2.1.1 2-2.2 3.1-4.7 3.4-7.8z" fill="#ac642f" stroke-width="none" opacity="1" stroke="none"></path></g></g><g id="svga-group-faceshape-wrap" transform="matrix(1,0,0,1,0,0)"><g id="svga-group-faceshape-single"><path id="SvgjsPath16886" d="M141 85.4c-1.2-28.5-19.88-43.56-41.18-43.56C78.42 41.84 60.2 56.9 59 85.4c0 0-.2 5.4.2 12.1.3 6.6 1.3 11.3.8 19.3s3.43 16.07 8.63 19.97c6 4.5 8.9 4.41 13.9 5.71s7.63 8.42 17.53 8.42c10 0 12.4-6.88 17.3-8.18 5-1.3 8.28-1.37 14.28-5.87 5.2-3.9 8.86-12.04 8.36-20.04s.5-12.6.8-19.3c.4-6.71.2-12.11.2-12.11z" fill="#cb8d60" stroke-width="none" opacity="1" stroke="none"></path><path id="SvgjsPath16887" d="M68.2 137.2c6 4.5 9.4 4.8 14.4 6.1s7.5 8.3 17.4 8.3 12.5-7 17.4-8.3c5-1.3 8.4-1.6 14.4-6.1 5.2-3.9 8.7-12.5 8.2-20.5s.5-12.6.8-19.3c.3-6.6.2-12.1.2-12.1-1.2-28.5-19.7-44.1-41-44.1S60.2 57 59 85.4c0 0-.2 5.4.2 12.1.3 6.6 1.3 11.3.8 19.3-.5 7.9 3 16.5 8.2 20.4zm-8.3-43.11c-.1-1.62-.1-3.35-.1-4.97v-3.65l.1-1.22c0-.81.1-1.62.2-2.43l.3-2.43c.5-3.24 1.2-6.39 2.3-9.53 2.1-6.18 5.7-11.76 10.3-16.12 2.3-2.13 4.9-4.06 7.7-5.47.7-.3 1.4-.71 2.1-1.01.4-.2.7-.3 1.1-.51l2.2-.81s1.8-.61 2.2-.71.7-.2 1.1-.3c12-3.04 25.4-.81 35.4 7 5 3.85 9 9.12 11.8 15 2.7 5.98 4.1 12.57 4.3 19.16v4.97c0 1.62-.1 3.35-.2 4.97-.2 3.35-.6 6.59-1 9.83-.4 3.35-.8 6.69-.8 10.04v3.66l-.1 1.22c-.2 1.52-.5 3.14-.9 4.56-.4 1.52-1 2.94-1.7 4.36s-1.5 2.74-2.4 3.85c-.9 1.22-1.9 2.23-3 3.04l-.2.2-.2.2-.5.3c-.3.2-.6.41-1 .61-.6.41-1.3.81-2 1.12-1.3.71-2.7 1.22-4.1 1.72-1.4.41-3 .81-4.6 1.12l-1.2.3h-.2l-.2.1-.4.1c-.3.1-.5.2-.8.3-1 .41-1.9 1.01-2.6 1.52-1.5 1.12-2.7 2.23-3.9 3.14-1.2.91-2.4 1.62-3.6 2.13-1.3.51-2.6.81-4 .91-.7.1-3.5-.1-4.2-.2-1.4-.3-2.6-.71-3.9-1.32-1.2-.61-2.4-1.52-3.6-2.53-.6-.51-1.3-1.01-2-1.62-.7-.51-1.5-1.12-2.4-1.62-.5-.2-1-.51-1.5-.61l-1.4-.41-2.4-.61c-1.6-.41-3-.71-4.4-1.32-1.4-.51-2.7-1.22-4-2.03-.3-.2-.6-.41-1-.61-.3-.2-.6-.41-.9-.71l-.8-.71-.2-.2-.6-.61c-1-1.01-1.9-2.23-2.7-3.45-.8-1.32-1.5-2.64-2-4.06s-1-2.94-1.3-4.46-.5-3.04-.5-4.56v-5.07c0-1.72-.1-3.35-.3-5.07-.3-3.35-.8-6.59-1.1-9.94 0-1.31-.1-2.93-.2-4.55z" fill="#9d521b" stroke-width="none" opacity="1" stroke="none"></path></g></g><g id="svga-group-mouth-single-move" transform="matrix(1,0,0,1,0,0)"><g id="svga-group-mouth-single" transform="matrix(1,0,0,1,0,0)"><path id="SvgjsPath16841" d="M84.5 124.5c.2 0 5.6 6.5 8.5 8 2.9 1.4 9 2 12.5.7s9.5-9.1 9.5-9.1-6.4 1.8-9.9 2.2c-3.5.4-11.7-.2-15-.7s-5.6-1.1-5.6-1.1z" fill="#000000" stroke-width="none" opacity="1" transform="translate(0 3)"></path><path id="SvgjsPath16842" d="M90 125.6c-3.3-.5-5.5-1.1-5.5-1.1.1 0 1.7 1.9 3.6 3.8 2.2.9 5.1 2 7.5 2.4 4.6.7 10.4.2 15.2-2.1.3-.1.6-.3.8-.4 1.9-2.1 3.4-4 3.4-4s-6.4 1.8-9.9 2.2c-3.6.3-11.8-.3-15.1-.8z" fill="#ffffff" stroke-width="none" opacity="1" transform="translate(0 3)"></path><path id="SvgjsPath16843" d="M116.9 123.3c-.1-.1-.1-.2-.2-.3-.3-.3-.6-.6-1-.6-.3 0-.5.4-.3.6 0 .1.1.1.1.2-2.4.4-4.8 1.2-7.2 1.6-2.9.5-5.9.6-8.8.7-1.3.1-7.09-.46-8.69-.66-2.4-.4-4.61-.94-7.01-1.24v-.5c-.1-.1-.2-.2-.3-.2-.4 0-.5.3-.7.6-.2.3-.3.6-.4.8-.2.5.4.9.8.4.1-.1.2-.3.3-.4 3.1 2.3 5.2 5.4 8.1 7.7 2.8 2.3 5.8 2.9 9.4 3 3.5.1 6.8-.8 9.2-3.5 1.1-1.2 1.9-2.5 2.9-3.8s2.1-2.3 3.2-3.4c.1.2.2.4.4.5.2.1.4.1.5-.1.3-.2 0-1-.3-1.4zm-6.5 5.1c-2.7 3-5.5 4.3-9.6 4.6s-7.5-.4-10.5-3.3c-1.5-1.4-2.8-3.1-4.4-4.4 1.8.6 3.9.9 5.6 1.2 1.4.3 6.11.92 8.4.9 2.8.1 5.6-.5 8.4-1.1 1.7-.3 3.4-.7 5-1.2-1.1 1-2 2.3-2.9 3.3z" fill="#DA7C87" stroke-width="none" opacity="1" transform="translate(0 3)" stroke="none"></path></g></g><g id="svga-group-eyes-left-move" transform="matrix(1,0,0,1,0,0)"><g id="svga-group-eyes-left" transform="matrix(1,0,0,1,0,0)"><g id="svga-group-eyesback-left"><path id="SvgjsPath16930" d="M92 99.3s-1.6-1.9-4.3-3.5c-2.7-1.6-6.5-2.8-10.1-2.4-3.5.4-6.5 1.3-6.4 1.4s1.1 2.3 3.4 3.6c2.3 1.3 4.9 2.6 8.2 2.7 3.3 0 6-.4 7.5-1s1.7-.8 1.7-.8z" fill="#ffffff" stroke-width="none" opacity="1"></path></g><g id="svga-group-eyesiriswrapper-left" transform="matrix(1,0,0,1,0,0)"><g id="svga-group-eyesiriscontrol-left" transform="matrix(1,0,0,1,0,0)"><g id="svga-group-eyesiris-left" transform="matrix(1,0,0,1,0,0)"><path id="SvgjsPath16900" d="M82 91.5c2.7 0 4.9 2.2 4.9 4.9s-2.2 4.9-4.9 4.9-4.9-2.2-4.9-4.9 2.2-4.9 4.9-4.9z" fill="#66724e" stroke-width="none" opacity="1"></path><path id="SvgjsPath16901" d="M82 93.8c1.4 0 2.6 1.2 2.6 2.6S83.4 99 82 99s-2.6-1.2-2.6-2.6 1.2-2.6 2.6-2.6z" fill="#000000" stroke-width="none" opacity="1"></path><path id="SvgjsPath16902" d="m81.3 94.3-.5-.5c-.2-.2-.4-.3-.7-.3s-.5.1-.7.3c-.2.2-.3.4-.3.7s.1.5.3.7l.5.5c.2.2.4.3.7.3.2 0 .5-.1.7-.3.4-.5.4-1 0-1.4zm2.5 4.4c.8 0 .8-1.3 0-1.3s-.9 1.3 0 1.3z" fill="#ffffff" stroke-width="none" opacity="1"></path></g></g></g><g id="svga-group-eyesfront-left"><path id="SvgjsPath16938" d="M70.73 98.03c0 6.9 4.93 12.5 11.02 12.5s11.02-5.6 11.02-12.5-4.93-12.5-11.02-12.5-11.02 5.59-11.02 12.5zm.42-3.19c-.07-.11 2.9-.93 6.44-1.36 3.54-.43 7.34.79 10.06 2.36 2.72 1.58 4.33 3.48 4.33 3.48s-.35.17-1.78.78c-1.43.61-4.22 1.07-7.48 1.04-3.26-.04-5.83-1.36-8.16-2.68-2.34-1.33-3.34-3.52-3.41-3.62z" fill="#cb8d60" stroke-width="none" opacity="1" stroke="none"></path><path id="SvgjsPath16939" d="M92.14 98.9c-1.64-4.26-4.72-7.79-9.36-8.78-4.77-1.01-8.68 1.11-12.08 4.21-.06.06-.18-.02-.12-.1 5.62-8.37 19.63-4.78 21.65 4.63.01.07-.07.09-.09.04z" fill="#bc7746" stroke-width="none" opacity="1" stroke="none"></path><path id="SvgjsPath16940" d="M63.55 95.41c2.13.29 4.01-.12 5.87-.69-1.83-.08-3.62-.65-5.17-1.79-.16-.11-.07-.43.15-.34 2.45 1 4.91 1.54 7.45 1.35.82-.27 1.66-.52 2.53-.72 2.12-.49 4.34-.6 6.48-.26 4.19.66 8.97 2.88 11.37 6.52.04.07-.05.12-.1.08-4.31-3.46-8.42-5.76-14.13-5.63-2.16.05-4.27.7-6.39 1.29 4.59 6 13.2 7.22 19.92 4.28.03-.02.06.03.03.05-6.58 3.27-16.06 2.28-20.4-4.21-2.56.7-5.11 1.26-7.72.5-.28-.09-.16-.47.11-.43z" fill="#2a150e" stroke-width="none" opacity="1" stroke="none"></path></g></g></g><g id="svga-group-eyes-right-move" transform="matrix(1,0,0,1,0,0)"><g id="svga-group-eyes-right" transform="matrix(1,0,0,1,0,0)"><g id="svga-group-eyesback-right"><path id="SvgjsPath16931" d="M108 99.3s1.6-1.9 4.3-3.5c2.7-1.6 6.5-2.8 10.1-2.4 3.5.4 6.5 1.3 6.4 1.4s-1.1 2.3-3.4 3.6c-2.3 1.3-4.9 2.6-8.2 2.7-3.3 0-6-.4-7.5-1s-1.7-.8-1.7-.8z" fill="#ffffff" stroke-width="none" opacity="1"></path></g><g id="svga-group-eyesiriswrapper-right" transform="matrix(1,0,0,1,0,0)"><g id="svga-group-eyesiriscontrol-right" transform="matrix(1,0,0,1,0,0)"><g id="svga-group-eyesiris-right" transform="matrix(1,0,0,1,0,0)"><path id="SvgjsPath16903" d="M118 91.5c2.7 0 4.9 2.2 4.9 4.9s-2.2 4.9-4.9 4.9-4.9-2.2-4.9-4.9 2.2-4.9 4.9-4.9z" fill="#66724e" stroke-width="none" opacity="1"></path><path id="SvgjsPath16904" d="M118 93.8c1.4 0 2.6 1.2 2.6 2.6S119.4 99 118 99s-2.6-1.2-2.6-2.6 1.2-2.6 2.6-2.6z" fill="#000000" stroke-width="none" opacity="1"></path><path id="SvgjsPath16905" d="m117.4 94.3-.5-.5c-.2-.2-.4-.3-.7-.3s-.5.1-.7.3c-.2.2-.3.4-.3.7s.1.5.3.7l.5.5c.2.2.4.3.7.3.2 0 .5-.1.7-.3.3-.5.4-1 0-1.4zm2.4 4.4c.8 0 .8-1.3 0-1.3s-.8 1.3 0 1.3z" fill="#ffffff" stroke-width="none" opacity="1"></path></g></g></g><g id="svga-group-eyesfront-right"><path id="SvgjsPath16941" d="M118.26 85.53c-6.08 0-11.02 5.6-11.02 12.5s4.93 12.5 11.02 12.5 11.02-5.6 11.02-12.5-4.94-12.5-11.02-12.5zm7.19 12.92c-2.33 1.32-4.9 2.65-8.16 2.68-3.26.04-6.05-.43-7.48-1.04-1.43-.61-1.78-.78-1.78-.78s1.6-1.9 4.33-3.48c2.72-1.58 6.52-2.79 10.06-2.36 3.54.43 6.52 1.25 6.44 1.36-.08.11-1.08 2.3-3.41 3.62z" fill="#cb8d60" stroke-width="none" opacity="1" stroke="none"></path><path id="SvgjsPath16944" d="M107.86 98.9c1.64-4.26 4.72-7.79 9.36-8.78 4.77-1.01 8.68 1.11 12.08 4.21.06.06.18-.02.12-.1-5.62-8.37-19.63-4.78-21.65 4.63-.01.07.07.09.09.04z" fill="#bc7746" stroke-width="none" opacity="1" stroke="none"></path><path id="SvgjsPath16945" d="M136.45 95.41c-2.13.29-4.01-.12-5.87-.69 1.83-.08 3.62-.65 5.17-1.79.16-.11.07-.43-.15-.34-2.45 1-4.91 1.54-7.45 1.35-.82-.27-1.66-.52-2.53-.72-2.12-.49-4.34-.6-6.48-.26-4.19.66-8.97 2.88-11.37 6.52-.04.07.05.12.1.08 4.31-3.46 8.42-5.76 14.13-5.63 2.16.05 4.27.7 6.39 1.29-4.59 6-13.2 7.22-19.92 4.28-.03-.02-.06.03-.03.05 6.58 3.27 16.06 2.28 20.4-4.21 2.56.7 5.11 1.26 7.72.5.28-.09.16-.47-.11-.43z" fill="#2a150e" stroke-width="none" opacity="1" stroke="none"></path></g></g></g><g id="svga-group-facehighlight-single"></g><g id="svga-group-eyebrows-left-move" transform="matrix(1,0,0,1,0,0)"><g id="svga-group-eyebrows-left-rotate" transform="matrix(1,0,0,1,0,0)"><g id="svga-group-eyebrows-left" transform="matrix(1,0,0,1,0,0)"><path id="SvgjsPath16997" d="M69.4 84.4c.2-.2.4-.4.7-.5v-.2c.2-.4.6-.6.9-.7.2-.1.3-.2.5-.3.5-.3 1-.6 1.5-.7h.2c.5-.2 1.1-.3 1.7-.3.9-.6 2.5-.6 3.4-.2.1 0 .1.1.1.1 1.3-.3 2.8 0 4 .3 1.7.4 3.7 1 5.1 2 .7.2 1.3.6 1.9.9 1.2.6 2.6 1.4 3.6 2.3.3.1.6.1.9.2h.1c.2-.1.4.2.2.4-.2.3-.5.5-.8.7.1.1.1.2 0 .3-1.6 2.3-5.7.4-7.3-1.5l-3.3-1.8h-.1c-1 0-2-.4-2.9-.7-1.1-.3-2.2-.5-3.3-.8-.1 0-.2-.1-.2-.2-.7.1-1.3 0-2 0-.5 0-1 0-1.5-.1-.4.2-.7.3-1.1.5-.4.2-1 .4-1.5.4l-.6.3c-.1 0-.2 0-.3-.1v-.1c-.1 0 0-.2.1-.2z" fill="#cac1b2" stroke-width="none" opacity="1"></path><path id="SvgjsPath16998" d="M88.4 88.4c.8 0 1.5 0 2.3-.2.8-.2 1.5-.5 2.2-.8.2-.1.3.1.2.2-1.2 1.1-3.1 1.6-4.7 1.2-.3-.1-.3-.4 0-.4zm-1.6-.7c.8-.1 1.6 0 2.4-.1.8-.2 1.4-.6 2.1-1 .2-.1.3.1.2.3-.6.6-1.1 1.1-2 1.3s-1.8.2-2.7-.1c-.1-.1-.1-.4 0-.4zm-5-6.1c1.9.5 2.8 2.7 2.3 4.5-.1.2-.3.1-.3 0 .2-1.8-.6-3.2-2.1-4.2-.1-.2 0-.3.1-.3zm-6.6.2c2.2-.2 4.4 1.2 5.7 2.9.1.1 0 .2-.1.1-1.6-1.6-3.5-2.2-5.6-2.8-.2 0-.1-.2 0-.2zM70 83.5c1.5-1 3.5-.9 5.1-.2.1.1.1.2-.1.2-1.7-.5-3.3-.2-4.9.3-.2 0-.2-.2-.1-.3z" fill="#d9d8d5" stroke-width="none" opacity="1"></path><path id="SvgjsPath16999" d="M66 86.8c-.3.3.1.7.5.5 5.3-4.5 12.2-3.5 17.9-.3 2.1 1.2 4.3 3.3 6.9 3.1 1.5-.1 3.3-1.2 3.2-2.9 0-.2-.3-.3-.4-.1-.9 2.7-3.1 2.5-5.1 1.6 1.2.1 2.5-.4 3.5-1.1.2-.1 0-.3-.1-.2-1.3.7-2.7.8-4.2.8h-.1c-.2-.1-.5-.3-.7-.4.6-.3 1.1-.7 1.3-1.4.1-.2-.2-.3-.3-.1-.3.5-.8 1-1.3 1.3-.4-.2-.7-.4-1.1-.7-.7-.4-1.5-.9-2.2-1.2.4-1.2.2-2.6-.6-3.5 3.5 1 6.7 2.7 9.7 4.7.2.2.5-.2.2-.4-4.4-3.2-9.8-5.7-15.3-5.8-2 0-3.9.3-5.7 1.1-2 .9-4.4 2.6-5.6 4.6-.3.2-.4.3-.5.4zm17.3-1.2c-.5-.2-1-.5-1.5-.7-.5-1.3-1.5-2.7-2.8-3.3 1.1.1 2.2.2 3.2.5.8 1 1.2 2.1 1.1 3.5zm-4.4-1.7c-.3-.1-.7-.2-1-.2v-.2c-1-1.1-2.4-1.7-3.9-1.6 1.2-.3 2.5-.4 3.7-.4.8.4 1.6.8 2.2 1.4.6.5 1.1 1.2 1.4 1.8-.7-.3-1.5-.5-2.4-.8zm-9.2.5c.7-.7 1.5-1.3 2.5-1.7.5-.2 1-.4 1.6-.6-.1.1 0 .2.1.3 1.4.2 2.6.6 3.8 1.3-2.7-.5-5.6-.3-8 .7z" fill="#bbab92" stroke-width="none" opacity="1"></path></g></g></g><g id="svga-group-eyebrows-right-move" transform="matrix(1,0,0,1,0,0)"><g id="svga-group-eyebrows-right-rotate" transform="matrix(1,0,0,1,0,0)"><g id="svga-group-eyebrows-right" transform="matrix(1,0,0,1,0,0)"><path id="SvgjsPath17000" d="M130.6 84.4c-.2-.2-.4-.4-.7-.5v-.2c-.2-.4-.6-.6-.9-.7-.2-.1-.3-.2-.5-.3-.5-.3-1-.6-1.5-.7h-.2c-.5-.2-1.1-.3-1.7-.3-.9-.6-2.5-.6-3.4-.2-.1 0-.1.1-.1.1-1.3-.3-2.8 0-4 .3-1.7.4-3.7 1-5.1 2-.7.2-1.3.6-1.9.9-1.2.6-2.6 1.4-3.6 2.3-.3.1-.6.1-.9.2h-.1c-.2-.1-.4.2-.2.4.2.3.5.5.8.7-.1.1-.1.2 0 .3 1.6 2.3 5.7.4 7.3-1.5l3.3-1.8h.1c1 0 2-.4 2.9-.7 1.1-.3 2.2-.5 3.3-.8.1 0 .2-.1.2-.2.7.1 1.3 0 2 0 .5 0 1 0 1.5-.1.4.2.7.3 1.1.5.4.2 1 .4 1.5.4l.6.3c.1 0 .2 0 .3-.1v-.1c.1 0 0-.2-.1-.2z" fill="#cac1b2" stroke-width="none" opacity="1"></path><path id="SvgjsPath17001" d="M111.6 88.4c-.8 0-1.5 0-2.3-.2-.8-.2-1.5-.5-2.2-.8-.2-.1-.3.1-.2.2 1.2 1.1 3.1 1.6 4.7 1.2.3-.1.3-.4 0-.4zm1.6-.7c-.8-.1-1.6 0-2.4-.1-.8-.2-1.4-.6-2.1-1-.2-.1-.3.1-.2.3.6.6 1.1 1.1 2 1.3s1.8.2 2.7-.1c.1-.1.1-.4 0-.4zm5-6.1c-1.9.5-2.8 2.7-2.3 4.5.1.2.3.1.3 0-.2-1.8.6-3.2 2.1-4.2.1-.2 0-.3-.1-.3zm6.6.2c-2.2-.2-4.4 1.2-5.7 2.9-.1.1 0 .2.1.1 1.6-1.6 3.5-2.2 5.6-2.8.2 0 .1-.2 0-.2zm5.2 1.7c-1.5-1-3.5-.9-5.1-.2-.1.1-.1.2.1.2 1.7-.5 3.3-.2 4.9.3.2 0 .2-.2.1-.3z" fill="#d9d8d5" stroke-width="none" opacity="1"></path><path id="SvgjsPath17002" d="M133.7 86.5c-1.2-1.9-3.6-3.6-5.6-4.6-1.8-.8-3.8-1.2-5.7-1.1-5.6.1-10.9 2.6-15.3 5.8-.2.2 0 .6.2.4 3-2 6.2-3.8 9.7-4.7-.8.9-1 2.3-.6 3.5-.8.4-1.5.8-2.2 1.2-.3.2-.7.4-1.1.7-.5-.3-1-.8-1.3-1.3-.1-.1-.3-.1-.3.1.2.7.7 1.1 1.3 1.4-.2.1-.5.3-.7.4h-.1c-1.5 0-2.8-.1-4.2-.8-.2-.1-.3.1-.1.2 1 .7 2.3 1.2 3.5 1.1-2 .9-4.2 1.1-5.1-1.6-.1-.2-.4-.2-.4.1-.1 1.7 1.7 2.8 3.2 2.9 2.6.2 4.8-1.9 6.9-3.1 5.7-3.2 12.6-4.2 17.9.3.3.3.8-.2.5-.5-.3-.2-.4-.3-.5-.4zm-15.9-4.4c1.1-.2 2.1-.4 3.2-.5-1.3.6-2.3 2-2.8 3.3-.5.2-1 .4-1.5.7-.1-1.4.3-2.5 1.1-3.5zm.8 2.7c.4-.7.8-1.3 1.4-1.8.7-.6 1.5-.9 2.2-1.4 1.3 0 2.5.1 3.7.4-1.5-.1-2.9.5-3.9 1.6v.2c-.3.1-.7.1-1 .2-.8.2-1.6.4-2.4.8zm3.8-1.1c1.1-.8 2.4-1.2 3.8-1.3.2 0 .2-.2.1-.3.5.2 1.1.4 1.6.6.9.4 1.7 1.1 2.5 1.7-2.5-1-5.4-1.2-8-.7z" fill="#bbab92" stroke-width="none" opacity="1"></path></g></g></g><g id="svga-group-nose-single-move" transform="matrix(1,0,0,1,0,0)"><g id="svga-group-nose-single" transform="matrix(1,0,0,1,0,0)"><path id="SvgjsPath16976" d="M94.94 88.27c1.09.9 1.93 1.85 2.34 3.25.46 1.58.01 2.89-.24 4.43-.13.83-.12 1.6.01 2.43.3 1.82.37 3.1-.45 4.84-.89 1.9-1.83 3.6-1.99 5.74-.16 2.17.41 4.19 1.48 6.07.08.15.3.02.23-.13-1.42-3.01-1.47-6.54-.07-9.57.83-1.8 1.93-3.43 1.69-5.5-.18-1.62-.5-2.94-.16-4.61.18-.87.35-1.73.26-2.63-.18-1.86-1.29-3.63-2.92-4.55-.15-.08-.32.12-.18.23z" fill="#9d521b" stroke-width="none" opacity="1" transform="translate(0 2)" stroke="none"></path><path id="SvgjsPath16977" d="M93.24 112.44c-1.27 1.59-2.06 6.22.65 7.01 1.79.52 2.16-2.61 4-1.23.99.74 1.24 2.28 2.78 2.12 1.1-.12 1.64-1.17 2.46-1.75 1.49-1.06 2.77 1.2 4.24.13 2.19-1.59.45-5.37-1.21-6.58-.31-.23-.67.27-.41.53 1.04 1.01 2.38 2.98 1.66 4.56-.88 1.93-2.26.03-3.42.11-1.92.13-2.62 3.5-4.74 1.47-.84-.8-1.73-2.54-3.19-1.71-.17.1-.3.26-.43.4-.16.23-.31.48-.43.73-1.44.21-2.24-.2-2.38-1.24-.48-1.46.09-3.07.65-4.41.07-.13-.14-.25-.23-.14z" fill="#9d521b" stroke-width="none" opacity="1" transform="translate(0 2)" stroke="none"></path><path id="SvgjsPath16978" d="M105.73 88.66c-3.59 2.68-1.04 6.83-1.81 10.38-.03.14.16.23.23.1.63-1.1.51-2.29.3-3.5-.48-2.75-.43-4.56 1.48-6.72.11-.13-.04-.37-.2-.26z" fill="#9d521b" stroke-width="none" opacity="1" transform="translate(0 2)" stroke="none"></path><path id="SvgjsPath16979" d="M103.91 102.3c.7 2.53.9 4.93 1.01 7.53 0 .11.18.15.2.03.41-2.5-.08-5.28-1.03-7.61-.04-.11-.21-.07-.18.05z" fill="#9d521b" stroke-width="none" opacity="1" transform="translate(0 2)" stroke="none"></path><path id="SvgjsPath16980" d="M104.48 108.47c-.12-1.87-.5-4.29-1.95-5.6-.25-.23-.69-.08-.68.28.03 1.79.74 3.49.74 5.31 0 1.52-.87 3.56-.29 4.98.12.3.45.5.76.31 1.55-.93 1.52-3.67 1.42-5.28z" fill="#d3986e" stroke-width="none" opacity="1" transform="translate(0 2)" stroke="none"></path></g></g><g id="svga-group-hair-front" transform="matrix(1,0,0,1,0,0)"><path id="SvgjsPath17043" d="M51.5 147.7c1.1 5.3 2.9 8.2 2.9 8.2s-4.6 8.9 3.3 16.6c6.1 5.9 10.3-4.3 11.8-8.4 1.6-4.4.9-6.3.9-6.3s4.7-8.4 1.1-16.9c-11.9.4-16 4-17.5 2.9-.5-.4-1.2-1.1-1.8-1.9-.6 1-1.3 2.7-.7 5.8zm77.1-5.6s-5.7 4.6 1.1 15.7c0 0-3.4 6.1 4.3 14.4 4.6 5 12.4-8 11.9-15.5s-2.3-7.9-2.3-7.9 1.7-1.8 2.9-4.7c-2.7.2-8.2.1-17.9-2zM88 57s4.8 11.8 23.5 15.3S135 84 136.1 91.2s-2.4 13.5-1.7 18.3c.7 4.8 2.8 4.4 2.2 10.2 0 0 3.5-5.9 2.4-9.8s-.9-5.2.6-8.9 5.4-10.9 4.2-23.8-6.7-25.7-18.3-33.8-32.9-6.4-38.6-.5c0 0-12.8-5.9-23.7 7.6s-9.6 31.6-7 39.2c2.6 7.6 4.1 8.3 4.4 12.2s-.9 6.1-.2 7.9c.7 1.8 2.4 4.2 2.4 4.2s-2-5.4-.4-9.2 2.8-10.2 1.7-14.4.4-7.8 3.5-11.7S80.4 76.9 88 57zM58.3 169.4s-5.4 1.8-5.4 11.3S56 193 56 193s-1.2-4.1-.3-7.4c0 0-.2 10.1 6.9 15.6 0 0-2.3-5.1-.5-7.7s4.9-2.6 6.6-5.6c1.6-2.9 2.1-11 .8-15.2-1.3-4.3-7.7-4.9-11.2-3.3zm73.8-.3s-4.1 2.3-4.9 8.5.5 10.2 5.3 14.5c4.8 4.3 3.5 10.9 3.5 10.9s3.8-4.9 3.2-9.3-1.6-5.1-1.6-5.1 2.3 3.9 2.8 7.9c0 0 3.6-4.6 4.1-8.7s1.9-13.6-4.8-17.7c-5-3-7.6-1-7.6-1z" fill="#cac1b2" stroke-width="none" opacity="1" stroke="none"></path><path id="SvgjsPath17044" d="M88.9 51.3s5.2 9.2 17.1 14.2 24.7 8.3 29.9 13.8 2.9 16.8 1.9 19.5c0 0 6.4-8.8 2.1-18.5s-30.1-13.8-38.2-19-12.8-10-12.8-10zm1.2-4.3s7.4 7.4 20.2 11.1 27.3 9 32.3 17.8c0 0-1.9-8.8-12.3-15.9s-24.6-3.7-40.2-13zm-3.6 4.3s-3.3 13.3-10.2 18.5-13.8 9-14.2 14c-.5 5 1 8.5 1 8.5S58.5 86.9 60 81c1.4-5.9 9.2-8.5 15.2-13.5s11.3-16.2 11.3-16.2zm-3.3-5.7S77.3 56 70.6 61.7s-12.1 9-13.3 14.2c0 0-.2-5.5 2.6-10.2s7.4-7.4 13-10.7 10.3-9.4 10.3-9.4zm9-3.3s12.3-2.8 21.1-1.4 19.9 8.8 24 17.1 5.2 11.2 5.2 11.2-4-8.8-10-14.5-17.3-14.3-40.3-12.4zM57.6 62.2s5.9-15.9 23.5-18.3c0 .1-15 5.8-23.5 18.3z" fill="#d2ccc3" stroke-width="none" opacity="1" stroke="none"></path><path id="SvgjsPath17045" d="M63.2 170.2s2.4 4.5 3 8.7-1.8 8.7-3.3 10.6-2 3.8-2 3.8 1.4-3 4.1-4.5c2.7-1.5 3.8-8.7 2.6-11.9-1.3-3.3-4.4-6.7-4.4-6.7zm73.9.8s2.6 3.6 3.7 9.5.1 12.4.1 12.4 2.4-5.3 1.9-9.1-1-7-5.7-12.8zM53 180.7c0 9.5 3.1 12.3 3.1 12.3s-1.2-4.1-.3-7.4c0 0-.2 10.1 6.9 15.6 0 0-.5-1-.8-2.4-1.1-1.4-2.1-3.2-2.3-5.5-.4-5-.5-14.9-.4-17.9s-.7-6-.7-6h-.1c-.8.3-5.4 2.5-5.4 11.3zm90.5-31.9s.1 0 0 0c.1-.1.1-.1 0 0l.2-.2.1-.1c.1-.1.1-.2.2-.3v-.1l.3-.3s0-.1.1-.1c1-1.4 2.6-4 3.1-7.3-.9 2.6-2.9 4.8-5.2 6.2-3.9 2.4-8.3 4.6-9.7 6.7s-1.8 5.4-1.1 7.4c0 0 .2-3.8 5.3-7 2.2-1.4 4.1-2.3 5.4-3.3.8 1.2 1.3 3.7 1.1 6.5-.2 3.7-2.1 9.6-3.4 11.6-1.3 1.9-2.8 2.6-2.8 2.6s1.3.1 2.6 0c3.5-3.8 6.4-11.1 5.8-15.9-.7-5.3-2-6.4-2-6.4zm-88.6 2.7c-2.1-1.7-3.2-5.5-3.4-8-.3 1-.4 2.3 0 4.2 1.1 5.3 2.9 8.2 2.9 8.2 3.3 3.2 4.1 2.4 6.6 3.9s3.1 4.9 3.1 4.9 1.3-5.2-.7-7.6-5.7-3.2-8.5-5.6zm5.8 20.4s-2.1-2.1-5-5.8c-1.6-2-2.1-4.8-2.3-6.9-.6 3-.6 7.6 3 11.9 2 .6 4.3.8 4.3.8zm9.5-15.4c2.9-5.3 2.5-10.4 1.3-12.5-1.2-2.1-3.6-4.8-3.6-4.8s2.3 6.4 1.7 9.6c-.3 2.1-1.7 3.6-2.5 4.4-.9-.8-2-1.5-3-1.9-2.3-.9-4.6-4.4-4.6-4.4.3 3.2 4.5 6.4 6 8 1.5 1.5 1.3 4.3 1.3 4.3s0 8.8-3 10.9c0 0 1.1.8 3.3-.6 1.1-1.9 1.9-4 2.4-5.4 1.6-4.4.9-6.3.9-6.3s0-.6-.2-1.3zm58.9-14.1s-1.9 2.8-1.4 7c.4 4.2 3.1 8.2 3.1 8.2s-2-8.8 1.8-15.6l-2-1.4-1.5 1.8zm6 47.2c-3.5-6.2-5.6-10.5-3.9-14.3.5-1.1.9-2.3 1.4-3.2.7-.9 1.6-1.8 2.8-2.7 0 0-1.9-2.2-1.9-5.9s2.1-6.7 2.1-6.7-4.2 2.5-4.5 7.1c-.3 4.6.4 5.5.4 5.5-1.2.9-3.7 3.4-4.3 8.1-.8 6.2.5 10.2 5.3 14.5 4 3.6 3.7 8.9 3.5 10.4 0 .1 2.7-6.5-.9-12.8z" fill="#bbab92" stroke-width="none" opacity="1" stroke="none"></path><path id="SvgjsPath17046" d="M68.6 170.1c-.1-.2-.3-.2-.5-.3 0-.2 0-.3-.1-.5.2-.3.4-.6.4-.9 0-.2-.1-.4-.3-.4-.5-.1-.9.1-1.3.4-.2 0-.4.1-.7.2-1.4.9-3.7.7-5.3.8-1 .1-2.1.2-3.1.3-.8-.2-1.6-.4-2.4-.8-.7-.3-1.5.6-.9 1.1.2.2.5.4.8.6-.5.4-.5 1.3.3 1.6 1.1.4 2.8.9 4.2.7 1.4.3 3.1-.2 4.5-.4 1.1-.2 2.2-.3 3-1h.3c.7 0 1.8-.6 1.1-1.4zm73.8-2c-.6 0-1.1.2-1.6.3-.4.1-.7.1-1.1.2-.8-.1-1.7 0-2.5 0-1.2 0-2.5 0-3.8-.1-.5-.1-1-.2-1.4-.4-.7-.3-1.3-.8-2.1-.9-.5-.1-1.1.3-.9.9.1.2.2.5.4.7h-.2c-.3 0-.5.3-.4.6.3.8.8 1.2 1.4 1.5.1 0 .1.1.2.1 0 0 .1 0 .1.1.7.4 1.6.5 2.3.6.5.1 1.3.2 1.9 0 2.3.3 4.7.5 7 .1.7-.1.9-.8.8-1.4.4-.3.6-.7.8-1.2.2-.5-.3-1.1-.9-1.1z" fill="#000000" stroke-width="none" opacity="1"></path></g><g id="svga-group-glasses-single-move" transform="matrix(1,0,0,1,0,0)"><g id="svga-group-glasses-single" transform="matrix(1,0,0,1,0,0)"></g></g></g></g></g><rect id="svga-credit-rect" width="200" height="15" x="0" y="185" fill="#ecf0f1" opacity="0.5" style="display: none;"></rect><text id="svga-credit-text" font-family="Avenir Next, Roboto, Helvetica, Arial, sans-serif" font-size="10px" text-anchor="start" font-weight="400" size="10px" anchor="start" weight="400" fill="#333333" x="33.43830108642578" y="182.5404257774353" style="display: none;"><tspan id="SvgjsTspan16395" dy="13" x="33.43830108642578">Created on AvatarMaker.com</tspan></text></g></svg>